<?xml version="1.0" encoding="utf-8"?>
<!-- Generator: Adobe Illustrator 22.1.0, SVG Export Plug-In . SVG Version: 6.00 Build 0)  -->
<svg version="1.1" id="Capa_1" xmlns="http://www.w3.org/2000/svg" xmlns:xlink="http://www.w3.org/1999/xlink" x="0px" y="0px"
	 viewBox="0 0 150 150" enable-background="new 0 0 150 150" xml:space="preserve">
<g>
	<defs>
		<circle id="SVGID_1_" cx="75" cy="75" r="72.5"/>
	</defs>
	<clipPath id="SVGID_2_">
		<use xlink:href="#SVGID_1_"  overflow="visible"/>
	</clipPath>
	<g clip-path="url(#SVGID_2_)">
		<path d="M105.3,37.6H44.7c-5.8,0-10.6,4.8-10.6,10.6v123c0,5.8,4.8,10.6,10.6,10.6h60.5c5.8,0,10.6-4.8,10.6-10.6v-123
			C115.9,42.3,111.1,37.6,105.3,37.6z M39,56.8H111v91.3H39V56.8z M44.7,42.4h60.5c3.2,0,5.8,2.6,5.8,5.8V52H39v-3.8
			C39,45,41.5,42.4,44.7,42.4z M105.3,177H44.7c-3.2,0-5.8-2.6-5.8-5.8v-18.3H111v18.3C111,174.4,108.5,177,105.3,177z"/>
		<path d="M75,155.4c-5.3,0-9.6,4.3-9.6,9.6s4.3,9.6,9.6,9.6c5.3,0,9.6-4.3,9.6-9.6S80.3,155.4,75,155.4z M75,169.8
			c-2.7,0-4.8-2.2-4.8-4.8s2.2-4.8,4.8-4.8s4.8,2.2,4.8,4.8S77.7,169.8,75,169.8z"/>
		<path d="M65.4,49.6H75c1.3,0,2.4-1.1,2.4-2.4c0-1.3-1.1-2.4-2.4-2.4h-9.6c-1.3,0-2.4,1.1-2.4,2.4C63,48.5,64.1,49.6,65.4,49.6z"/>
		<path d="M82.2,49.6h2.4c1.3,0,2.4-1.1,2.4-2.4c0-1.3-1.1-2.4-2.4-2.4h-2.4c-1.3,0-2.4,1.1-2.4,2.4C79.8,48.5,80.9,49.6,82.2,49.6z
			"/>
	</g>
	<use xlink:href="#SVGID_1_"  overflow="visible" fill="none" stroke="#000000" stroke-width="3.3565" stroke-miterlimit="10"/>
</g>
</svg>
