<?xml version="1.0" encoding="utf-8"?>
<!-- Generator: Adobe Illustrator 22.1.0, SVG Export Plug-In . SVG Version: 6.00 Build 0)  -->
<svg version="1.1" id="Capa_1" xmlns="http://www.w3.org/2000/svg" xmlns:xlink="http://www.w3.org/1999/xlink" x="0px" y="0px"
	 viewBox="0 0 150 150" style="enable-background:new 0 0 150 150;" xml:space="preserve" fill="#3F6078">
<g>
	<path d="M20.4,121.6c-2.2,0-4.1,1.8-4.1,4.1s1.8,4.1,4.1,4.1c2.2,0,4.1-1.8,4.1-4.1C24.4,123.5,22.6,121.6,20.4,121.6z"/>
	<path d="M126.1,121.6c-2.2,0-4.1,1.8-4.1,4.1c0,2.2,1.8,4.1,4.1,4.1c2.2,0,4.1-1.8,4.1-4.1C130.2,123.5,128.4,121.6,126.1,121.6z"
		/>
	<path d="M128.7,104.5L102.5,9.8c-0.4-1.4-1.7-2.4-3.1-2.4h-7.5c-1.8,0-3.3,1.5-3.3,3.3s1.5,3.3,3.3,3.3h5l8.2,29.7
		c-0.2,0-0.4,0-0.6,0.1c-1.7,0.5-2.8,2.3-2.3,4l16,58.1c-6.9,2.8-12.1,9-13.3,16.6H41.5c-1.6-10.2-10.4-18.1-21.1-18.1H5.8
		c-1.8,0-3.3,1.5-3.3,3.3S4,111,5.8,111h6.6c-5.3,2.9-8.9,8.4-8.9,14.8c0,9.3,7.6,16.9,16.9,16.9c8.3,0,15.2-6,16.6-14
		c0.4,0.2,1,0.4,1.5,0.4H108c0.5,0,1.1-0.1,1.5-0.4c1.4,7.9,8.3,14,16.6,14s15.2-6,16.6-14c0.4,0.2,1,0.4,1.5,0.4
		c1.8,0,3.3-1.5,3.3-3.3C147.5,114.8,139.3,105.8,128.7,104.5z M20.4,136.1c-5.7,0-10.3-4.6-10.3-10.3s4.6-10.3,10.3-10.3
		s10.3,4.6,10.3,10.3C30.7,131.4,26.1,136.1,20.4,136.1z M126.1,136.1c-5.7,0-10.3-4.6-10.3-10.3s4.6-10.3,10.3-10.3
		s10.3,4.6,10.3,10.3C136.5,131.4,131.8,136.1,126.1,136.1z"/>
</g>
</svg>
