<?xml version="1.0" encoding="utf-8"?>
<!-- Generator: Adobe Illustrator 22.1.0, SVG Export Plug-In . SVG Version: 6.00 Build 0)  -->
<svg version="1.1" id="Capa_1" xmlns="http://www.w3.org/2000/svg" xmlns:xlink="http://www.w3.org/1999/xlink" x="0px" y="0px"
	 viewBox="0 0 150 150" style="enable-background:new 0 0 150 150;" xml:space="preserve">
<style type="text/css">
	.st0{fill-rule:evenodd;clip-rule:evenodd;}
	.st1{opacity:0.35;}
</style>
<g>
	<g>
		<path d="M63.9,52.9c-2-1.9-4.6-3-7.5-3c-2.9,0-5.6,1.2-7.5,3c-0.1,0.1-0.1,0.3,0,0.5l1.2,1.2c0.1,0.1,0.3,0.1,0.4,0
			c1.6-1.5,3.7-2.4,6-2.4c2.3,0,4.4,0.9,6,2.4c0.1,0.1,0.3,0.1,0.4,0l1.2-1.2C64,53.2,64,53,63.9,52.9z M56.3,53.6
			c-1.9,0-3.6,0.7-4.9,1.9c-0.1,0.1-0.1,0.3,0,0.5l1.2,1.2c0.1,0.1,0.3,0.1,0.4,0c0.9-0.8,2-1.3,3.3-1.3c1.3,0,2.4,0.5,3.3,1.3
			c0.1,0.1,0.3,0.1,0.4,0l1.2-1.2c0.1-0.1,0.1-0.3,0-0.5C59.9,54.4,58.2,53.6,56.3,53.6z M56.3,57.4c-0.8,0-1.6,0.3-2.2,0.8
			c-0.1,0.1-0.1,0.3,0,0.5l2,2c0.1,0.1,0.3,0.1,0.4,0l2-2c0.1-0.1,0.1-0.3,0-0.5C57.9,57.7,57.2,57.4,56.3,57.4z"/>
	</g>
</g>
<g>
	<path class="st0" d="M108.3,51.8h15.3c0.7,0,1.3,0.6,1.3,1.3v4.7c0,0.7-0.6,1.3-1.3,1.3h-15.3c-0.7,0-1.3-0.6-1.3-1.3v-4.7
		C107,52.4,107.6,51.8,108.3,51.8z"/>
	<path d="M128,53.5v4c0.8-0.4,1.3-1.1,1.3-2C129.3,54.6,128.8,53.9,128,53.5"/>
	<g>
		<g class="st1">
			<path d="M124.3,50.8c0.9,0,1.7,0.7,1.7,1.7v6c0,0.9-0.7,1.7-1.7,1.7h-16.7c-0.9,0-1.7-0.7-1.7-1.7v-6c0-0.9,0.7-1.7,1.7-1.7
				H124.3 M124.3,49.8h-16.7c-1.5,0-2.7,1.2-2.7,2.7v6c0,1.5,1.2,2.7,2.7,2.7h16.7c1.5,0,2.7-1.2,2.7-2.7v-6
				C127,51,125.8,49.8,124.3,49.8L124.3,49.8z"/>
		</g>
	</g>
</g>
<g>
	<path class="st0" d="M18.7,56.8h1c0.6,0,1,0.4,1,1v2c0,0.6-0.4,1-1,1h-1c-0.6,0-1-0.4-1-1v-2C17.7,57.3,18.1,56.8,18.7,56.8z"/>
	<path class="st0" d="M23.3,54.8h1c0.6,0,1,0.4,1,1v4c0,0.6-0.4,1-1,1h-1c-0.6,0-1-0.4-1-1v-4C22.3,55.3,22.8,54.8,23.3,54.8z"/>
	<path class="st0" d="M28,52.5h1c0.6,0,1,0.4,1,1v6.3c0,0.6-0.4,1-1,1h-1c-0.6,0-1-0.4-1-1v-6.3C27,52.9,27.4,52.5,28,52.5z"/>
	<path class="st0" d="M32.7,50.2h1c0.6,0,1,0.4,1,1v8.7c0,0.6-0.4,1-1,1h-1c-0.6,0-1-0.4-1-1v-8.7C31.7,50.6,32.1,50.2,32.7,50.2z"
		/>
</g>
</svg>
