<?xml version="1.0" encoding="utf-8"?>
<!-- Generator: Adobe Illustrator 22.1.0, SVG Export Plug-In . SVG Version: 6.00 Build 0)  -->
<svg version="1.1" id="Capa_1" xmlns="http://www.w3.org/2000/svg" xmlns:xlink="http://www.w3.org/1999/xlink" x="0px" y="0px"
	 viewBox="0 0 150 150" style="enable-background:new 0 0 150 150;" xml:space="preserve">
<style type="text/css">
	.st0{opacity:0.3;enable-background:new    ;}
</style>
<g id="Stockholm-icons-_x2F_-General-_x2F_-Half-heart" transform="translate(70.000000, 319.000000)">
	<path id="Shape_123_" class="st0" d="M42.3-304.4c-13,0-28.1,14.7-36.3,24.2c-8.1-9.5-23.3-24.2-36.3-24.2
		c-23,0-36.3,17.9-36.3,40.7c0,25.2,24.2,52,72.5,80.1c48.3-28.2,72.5-54.4,72.5-78.5C78.5-284.9,65.2-304.4,42.3-304.4z"/>
	<path id="Combined-Shape_587_" d="M6-183.6c-48.3-28.2-72.5-54.9-72.5-80.1c0-22.8,13.3-40.7,36.3-40.7c13,0,28.1,14.7,36.3,24.2
		V-183.6z"/>
</g>
</svg>
