<?xml version="1.0" encoding="utf-8"?>
<!-- Generator: Adobe Illustrator 22.1.0, SVG Export Plug-In . SVG Version: 6.00 Build 0)  -->
<svg version="1.1" id="Layer_1" xmlns="http://www.w3.org/2000/svg" xmlns:xlink="http://www.w3.org/1999/xlink" x="0px" y="0px"
	 viewBox="0 0 150 150" style="enable-background:new 0 0 150 150;" xml:space="preserve">
<style type="text/css">
	.st0{fill:#3DB39E;}
	.st1{fill:#37A18E;}
	.st2{fill:#F2F1EF;}
	.st3{fill:#E6E5E3;}
</style>
<circle class="st0" cx="75.1" cy="75.1" r="72.5"/>
<g>
	<path class="st1" d="M107.1,46.8L43,113.2l0.1,7.1H46l69.4-56C113.4,58.2,110.6,52.2,107.1,46.8z"/>
	<g>
		<path class="st2" d="M37.8,117.3c0.5,0.5,1,1,1.6,1.4c1.3,0.9,3,1.7,4,1.6c1.4,0.1,2.7-0.2,3.7-1.2L117,50c1.7-1.8,1.7-4.6,0-6.4
			L104.2,31c-1.7-1.7-4.5-1.7-6.4,0L32,98.5c-3.2,3.3-3.3,8.6-0.2,12L37.8,117.3z"/>
		<path class="st3" d="M38.7,117.8c1,1,3.9,2.7,5.3,2.6c1.2,0.1,2.6-0.2,3.6-1.2l69.9-69.1c1.7-1.7,1.7-4.5,0-6.2l-2-1.9"/>
	</g>
	<g>
		<path class="st2" d="M32.5,39c-0.5,0.5-1,1-1.4,1.6c-0.8,1.3-1.7,3-1.6,4c-0.1,1.4,0.3,2.7,1.3,3.7l69.6,69.4
			c1.8,1.7,4.7,1.7,6.4-0.1l12.6-12.9c1.7-1.7,1.7-4.5-0.1-6.4L51.2,33c-3.3-3.2-8.6-3.3-12-0.1L32.5,39z"/>
		<path class="st3" d="M32,39.9c-1,1-2.6,4-2.5,5.3c-0.1,1.2,0.3,2.6,1.3,3.6l69.6,69.4c1.7,1.7,4.5,1.7,6.2-0.1l1.9-2"/>
	</g>
</g>
</svg>
