<?xml version="1.0" encoding="utf-8"?>
<!-- Generator: Adobe Illustrator 22.1.0, SVG Export Plug-In . SVG Version: 6.00 Build 0)  -->
<svg version="1.1" id="Distance_Group" xmlns="http://www.w3.org/2000/svg" xmlns:xlink="http://www.w3.org/1999/xlink" x="0px"
	 y="0px" viewBox="0 0 150 150" style="enable-background:new 0 0 150 150;" xml:space="preserve">
<style type="text/css">
	.st0{fill:none;}
	.st1{fill:url(#Path_210_1_);}
	.st2{fill:url(#Path_211_1_);}
	.st3{fill:#FFFFFF;}
</style>
<g id="icon_location">
	<path id="Path_209" class="st0" d="M74.5,134.9l37-53.7c14-18.6,11.8-49.1-4.4-65.3C98.5,7.3,86.8,2.4,74.5,2.5
		C62.2,2.5,50.4,7.4,41.6,16c-16.2,16.2-18.1,46.6-4.4,65.3L74.5,134.9z"/>
	
		<linearGradient id="Path_210_1_" gradientUnits="userSpaceOnUse" x1="-229.6006" y1="439.4702" x2="-229.6006" y2="437.6577" gradientTransform="matrix(45.9064 0 0 -65.6 10614.7432 28836.582)">
		<stop  offset="0" style="stop-color:#59C2FF"/>
		<stop  offset="1" style="stop-color:#1270E3"/>
	</linearGradient>
	<path id="Path_210" class="st1" d="M45.3,19.4C53,11.7,63.6,7.3,74.5,7.3c11,0.1,21.6,4.4,29.5,12.1c14.5,14.5,16.4,42.1,3.9,59
		l-33.4,47.9L41.4,78.4C28.8,61.7,30.5,34.2,45.3,19.4z"/>
	
		<linearGradient id="Path_211_1_" gradientUnits="userSpaceOnUse" x1="-232.1125" y1="428.9214" x2="-232.1125" y2="427.1089" gradientTransform="matrix(80 0 0 -22.6744 18644 9831.9502)">
		<stop  offset="0" style="stop-color:#59C2FF"/>
		<stop  offset="1" style="stop-color:#1270E3"/>
	</linearGradient>
	<path id="Path_211" class="st2" d="M104.2,106.4c-1.3-0.1-2.5,0.8-2.7,2.1c0,0,0,0,0,0.1c-0.2,1.2,0.6,2.4,1.9,2.6
		c0.1,0,0.2,0,0.3,0c25.4,2.9,38.9,11.1,38.9,15.7c0,6.5-25.9,15.7-67.7,15.7S7.3,133.5,7.3,127c0-4.6,13.5-12.8,38.9-15.7
		c1.3-0.1,2.3-1.3,2.2-2.7c-0.1-1.3-1.3-2.3-2.7-2.2C20.4,109.3,2.5,117.8,2.5,127c0,10.2,24.9,20.5,72.5,20.5s72.5-10.4,72.5-20.5
		C147.5,117.8,129.6,109.3,104.2,106.4z"/>
	<circle id="Ellipse_28" class="st3" cx="75" cy="48.4" r="16.9"/>
</g>
</svg>
