<?xml version="1.0" encoding="utf-8"?>
<!-- Generator: Adobe Illustrator 22.1.0, SVG Export Plug-In . SVG Version: 6.00 Build 0)  -->
<svg version="1.1" id="Capa_1" xmlns="http://www.w3.org/2000/svg" xmlns:xlink="http://www.w3.org/1999/xlink" x="0px" y="0px"
	 viewBox="0 0 150 150" style="enable-background:new 0 0 150 150;" xml:space="preserve">
<g>
	<path d="M97.7,97.7c-1.6,0-2.8,1.3-2.8,2.8s1.3,2.8,2.8,2.8s2.8-1.3,2.8-2.8S99.2,97.7,97.7,97.7z"/>
	<path d="M59.1,94.8c-1.6,0-2.8-1.3-2.8-2.8s1.3-2.8,2.8-2.8c1,0,2.1,0.5,3.1,1.5c1.1,1.1,2.9,1.1,4-0.1c1.1-1.1,1.1-2.9-0.1-4
		c-1.4-1.4-2.9-2.2-4.2-2.6v-3.3c0-1.6-1.3-2.8-2.8-2.8s-2.8,1.3-2.8,2.8V84c-3.3,1.2-5.7,4.3-5.7,8c0,4.7,3.8,8.5,8.5,8.5
		c1.6,0,2.8,1.3,2.8,2.8s-1.3,2.8-2.8,2.8c-1.2,0-2.5-0.8-3.7-2.1c-1-1.2-2.8-1.4-4-0.3c-1.2,1-1.4,2.8-0.3,4
		c1.5,1.8,3.3,3.1,5.2,3.7v3.3c0,1.6,1.3,2.8,2.8,2.8s2.8-1.3,2.8-2.8v-3.3c3.3-1.2,5.7-4.3,5.7-8C67.6,98.6,63.8,94.8,59.1,94.8z"
		/>
	<path d="M36.5,49.5c1.6,0,2.8-1.3,2.8-2.8V35.4c0-1.6-1.3-2.8-2.8-2.8s-2.8,1.3-2.8,2.8v11.3C33.7,48.2,34.9,49.5,36.5,49.5z"/>
	<path d="M136.2,69.3V46.7c0-7.8-6.4-14.2-14.2-14.2h-15.9V11c0-4.7-3.8-8.5-8.5-8.5H45c-4.7,0-8.5,3.8-8.5,8.5v10.2H28
		c-4.7,0-8.5,3.8-8.5,8.5v2.8h-2.8c-7.8,0-14.2,6.4-14.2,14.2v86.7c0,7.8,6.4,14.2,14.2,14.2h86.7c6.8,0,12.6-4.9,13.9-11.3h4.8
		c7.8,0,14.2-6.4,14.2-14.2v-7.4h2.8c4.7,0,8.5-3.8,8.5-8.5V80.7C147.5,74.4,142.4,69.3,136.2,69.3z M141.8,80.7
		c0,3.1-2.5,5.7-5.7,5.7V75C139.3,75,141.8,77.5,141.8,80.7z M122,38.2c4.7,0,8.5,3.8,8.5,8.5v39.6h-13v-17
		c0-6.8-4.9-12.6-11.3-13.9V38.2H122z M42.1,11c0-1.6,1.3-2.8,2.8-2.8h52.7c1.6,0,2.8,1.3,2.8,2.8v44.2h-13V29.7
		c0-4.7-3.8-8.5-8.5-8.5H42.1V11z M70.5,55.2V26.9H79c1.6,0,2.8,1.3,2.8,2.8v25.5H70.5z M53.5,55.2V26.9h11.3v28.3H53.5z M25.2,29.7
		c0-1.6,1.3-2.8,2.8-2.8h19.8v28.3H25.2V29.7z M16.7,38.2h2.8v17h-2.2c-4.7,0-9.1-3.4-9.1-8.5C8.2,42,12,38.2,16.7,38.2z
		 M103.3,141.8H16.7c-4.7,0-8.5-3.8-8.5-8.5V57.8c2.5,1.9,5.7,3,9.1,3h86.1c4.7,0,8.5,3.8,8.5,8.5v17H92c-4.7,0-8.5,3.8-8.5,8.5
		v11.3c0,4.7,3.8,8.5,8.5,8.5h19.8v18.7C111.8,138,108,141.8,103.3,141.8z M130.5,122c0,4.7-3.8,8.5-8.5,8.5h-4.5v-15.9h13V122z
		 M139,109H92c-1.6,0-2.8-1.3-2.8-2.8V94.8c0-1.6,1.3-2.8,2.8-2.8h44.2c2,0,4-0.5,5.7-1.5v15.7C141.8,107.7,140.6,109,139,109z"/>
	<path d="M122,97.7h-13c-1.6,0-2.8,1.3-2.8,2.8s1.3,2.8,2.8,2.8h13c1.6,0,2.8-1.3,2.8-2.8S123.6,97.7,122,97.7z"/>
</g>
</svg>
