<?xml version="1.0" encoding="utf-8"?>
<!-- Generator: Adobe Illustrator 22.1.0, SVG Export Plug-In . SVG Version: 6.00 Build 0)  -->
<svg version="1.1" id="Capa_1" xmlns="http://www.w3.org/2000/svg" xmlns:xlink="http://www.w3.org/1999/xlink" x="0px" y="0px"
	 viewBox="0 0 150 150" style="enable-background:new 0 0 150 150;" xml:space="preserve" fill="#3F6078">
<style type="text/css">
	.st0{fill:#42474B;stroke:#FDFDFD;stroke-width:0.3371;}
	.st1{fill:none;stroke:#42474B;stroke-width:1.3483;stroke-linecap:round;}
</style>
<g id="Group_171" transform="translate(-324.5 -741.5)">
	<g id="icon_schedule" transform="translate(1703.5 824.2)">
		<path id="Path_225" class="st0" d="M-1358.5,38.6c-2.3,0-4.1,1.8-4.1,4.1c0,2.3,1.8,4.1,4.1,4.1c0,0,0,0,0,0
			c2.3,0,4.1-1.8,4.1-4.1C-1354.5,40.6-1356.3,38.6-1358.5,38.6z"/>
		<path id="Path_226" class="st0" d="M-1252.9,38.6c-2.3,0-4.1,1.9-4.1,4.1s1.9,4.1,4.1,4.1c2.3,0,4.1-1.8,4.1-4.1
			C-1248.8,40.5-1250.6,38.7-1252.9,38.6z"/>
		<path id="Path_227" class="st0" d="M-1250.2,21.7l-26.2-94.4c-0.4-1.4-1.6-2.4-3.1-2.4h-7.5c-1.8,0-3.3,1.4-3.4,3.2
			c0,1.8,1.4,3.3,3.2,3.4c0,0,0.1,0,0.1,0h5l8.2,29.6c-0.2,0-0.4,0-0.6,0.1c-1.7,0.5-2.7,2.3-2.3,4l16,57.8
			c-6.9,2.7-12.1,9-13.3,16.5h-63.6c-1.7-10.4-10.6-18-21.1-18h-14.5c-1.8,0-3.3,1.4-3.4,3.2c0,1.8,1.4,3.3,3.2,3.4c0,0,0.1,0,0.1,0
			h6.6c-5.3,2.8-8.9,8.3-8.9,14.7c0,9.3,7.6,16.9,16.9,16.9c8.2,0.1,15.2-5.8,16.6-13.9c0.5,0.2,1,0.4,1.5,0.3h69.5
			c0.5,0,1-0.1,1.5-0.3c1.5,8,8.4,13.9,16.6,13.9c8.2,0.1,15.2-5.8,16.6-13.9c0.5,0.2,1,0.4,1.5,0.3c1.8,0,3.3-1.5,3.3-3.3
			C-1231.4,32-1239.5,22.9-1250.2,21.7z M-1358.5,53.1c-5.7,0-10.2-4.6-10.2-10.3c0-5.7,4.6-10.2,10.3-10.2
			c5.6,0,10.2,4.6,10.2,10.2C-1348.3,48.5-1352.8,53.1-1358.5,53.1z M-1252.9,53.1c-5.7,0-10.2-4.6-10.2-10.3s4.6-10.2,10.3-10.2
			c5.6,0,10.2,4.6,10.2,10.2C-1242.5,48.4-1247.2,53.1-1252.9,53.1z"/>
	</g>
	<g id="Lines_Speed" transform="translate(-8 109.5)">
		<line id="Line_24" class="st1" x1="375.3" y1="698.9" x2="415.8" y2="698.9"/>
		<line id="Line_25" class="st1" x1="355.1" y1="707" x2="395.6" y2="707"/>
		<line id="Line_26" class="st1" x1="369.6" y1="715.1" x2="410.1" y2="715.1"/>
	</g>
</g>
</svg>
