<?xml version="1.0" encoding="utf-8"?>
<!-- Generator: Adobe Illustrator 22.1.0, SVG Export Plug-In . SVG Version: 6.00 Build 0)  -->
<svg version="1.1" id="Capa_1" xmlns="http://www.w3.org/2000/svg" xmlns:xlink="http://www.w3.org/1999/xlink" x="0px" y="0px"
	 viewBox="0 0 150 150" style="enable-background:new 0 0 150 150;" xml:space="preserve">
<style type="text/css">
	.st0{opacity:0.3;enable-background:new    ;}
</style>
<g id="Stockholm-icons-_x2F_-Home-_x2F_-Clock" transform="translate(70.000000, 620.000000)">
	<path id="Mask_5_" class="st0" d="M5-470.5c-40,0-72.5-32.5-72.5-72.5S-35-615.5,5-615.5S77.5-583,77.5-543S45-470.5,5-470.5z"/>
	<path id="Path-107_1_" d="M4.7-587.3h0.7c2.1,0,3.8,1.6,4,3.6l3.7,36.7l26.2,15c1.3,0.7,2,2.1,2,3.5v1.7c0,1.7-1.4,3.1-3.1,3.1
		c-0.3,0-0.5,0-0.8-0.1L0.2-534.1c-1.9-0.5-3.1-2.3-3-4.2l3.5-45.3C0.8-585.7,2.6-587.3,4.7-587.3z"/>
</g>
</svg>
