<?xml version="1.0" encoding="utf-8"?>
<!-- Generator: Adobe Illustrator 22.1.0, SVG Export Plug-In . SVG Version: 6.00 Build 0)  -->
<svg version="1.1"
	 id="Capa_1" xmlns:cc="http://creativecommons.org/ns#" xmlns:dc="http://purl.org/dc/elements/1.1/" xmlns:inkscape="http://www.inkscape.org/namespaces/inkscape" xmlns:rdf="http://www.w3.org/1999/02/22-rdf-syntax-ns#" xmlns:sodipodi="http://sodipodi.sourceforge.net/DTD/sodipodi-0.dtd" xmlns:svg="http://www.w3.org/2000/svg"
	 xmlns="http://www.w3.org/2000/svg" xmlns:xlink="http://www.w3.org/1999/xlink" x="0px" y="0px" viewBox="0 0 150 150"
	 style="enable-background:new 0 0 150 150;" xml:space="preserve">
<g transform="translate(0,-952.36218)">
	<path d="M65.1,977.9c-7.5,0-15.7,1.5-23.5,4.4c-19.2,7-37.3,22.3-39.1,44.3c0,0.6,0,1.1,0,1.6c1.7,22.1,19.8,37.3,39.1,44.3
		c9.7,3.5,19.8,5.1,28.6,4.2c8.8-0.9,16.7-4.2,21-10.8c0.5-0.9,0.5-2,0.5-2.8v-71.2c-0.1-1.6-0.2-2.2-0.8-3.2
		c-4.4-6.3-12.1-9.5-20.7-10.4C68.6,978,66.9,977.9,65.1,977.9z M66.6,984.5c1,0,2,0.1,2.9,0.2c7.1,0.7,12.6,3.2,15.6,7.2v71.1
		c-3,3.9-8.5,6.4-15.6,7.1c-7.6,0.8-16.8-0.5-25.7-3.8c-17.7-6.4-33.5-20.1-34.9-38.9c1.3-18.8,17.2-32.4,34.9-38.9
		C51.6,985.7,59.6,984.3,66.6,984.5L66.6,984.5z"/>
	<path d="M105.2,1024.1c-1.8,0-3.3,1.4-3.4,3.2c0,1.8,1.4,3.3,3.2,3.4c0,0,0.1,0,0.1,0h38.9c1.8,0,3.3-1.4,3.4-3.2
		c0-1.8-1.4-3.3-3.2-3.4c0,0-0.1,0-0.1,0C144.1,1024.1,105.2,1024.1,105.2,1024.1z"/>
	<path d="M105.2,1046.5c-1.8,0-3.3,1.4-3.4,3.2c0,1.8,1.4,3.3,3.2,3.4c0,0,0.1,0,0.1,0h38.9c1.8,0,3.3-1.4,3.4-3.2s-1.4-3.3-3.2-3.4
		c0,0-0.1,0-0.1,0C144.1,1046.5,105.2,1046.5,105.2,1046.5z"/>
	<path d="M105.2,1001.5c-1.8,0-3.3,1.5-3.3,3.3s1.5,3.3,3.3,3.3c0,0,0,0,0,0h38.9c1.8,0,3.3-1.5,3.3-3.3c0-1.8-1.5-3.3-3.3-3.3
		C144.1,1001.5,105.2,1001.5,105.2,1001.5z"/>
	<path d="M28.1,1006.6c-1,0-1.9,0.3-2.6,1.1c-1.4,1.5-1.7,2-2.9,3.6c-1,1.5-0.7,3.6,0.8,4.6c1.5,1,3.5,0.7,4.6-0.8c0,0,0,0,0,0
		c1.2-1.8,0.9-1.5,2.2-2.8c1.3-1.3,1.3-3.4,0-4.7C29.7,1007,28.9,1006.7,28.1,1006.6L28.1,1006.6z"/>
	<path d="M66.2,990.6c-12.6,0-22.6,2.9-32.9,9.8c-1.5,1-1.9,3-0.9,4.6c1,1.5,3,1.9,4.6,0.9c0,0,0,0,0,0c10.8-7.2,20-9.4,34.4-8.5
		c1.8,0.1,3.4-1.2,3.5-3c0.1-1.8-1.2-3.4-3-3.5c0,0,0,0-0.1,0C69.8,990.7,68,990.6,66.2,990.6z"/>
</g>
</svg>
