<?xml version="1.0" encoding="utf-8"?>
<!-- Generator: Adobe Illustrator 22.1.0, SVG Export Plug-In . SVG Version: 6.00 Build 0)  -->
<svg version="1.1" id="Capa_1" xmlns="http://www.w3.org/2000/svg" xmlns:xlink="http://www.w3.org/1999/xlink" x="0px" y="0px"
	 viewBox="0 0 150 150" style="enable-background:new 0 0 150 150;" xml:space="preserve">
<style type="text/css">
	.st0{fill:#E2EBF0;}
	.st1{clip-path:url(#SVGID_3_);}
	.st2{fill:#D38355;}
	.st3{fill:#E4A463;}
	.st4{fill:#DABED8;}
	.st5{fill:#9F637A;}
	.st6{fill:#2A1516;}
	.st7{fill:#1E1414;}
	.st8{fill:#292F5C;}
	.st9{fill:#1C1315;}
	.st10{fill:#9D4A3C;}
	.st11{fill:#D48454;}
	.st12{fill:#E4A35D;}
	.st13{fill:#802222;}
	.st14{fill:#351E3D;}
	.st15{fill:#242B54;}
	.st16{fill:#331A3A;}
	.st17{fill:#F5E4E5;}
	.st18{fill:#171213;}
	.st19{fill:#D6B5D2;}
	.st20{fill:#9E6D7F;}
	.st21{fill:#D5B5D0;}
	.st22{fill:#EDE4E4;}
</style>
<circle id="SVGID_1_" class="st0" cx="75" cy="75" r="70"/>
<g>
	<defs>
		<circle id="SVGID_2_" cx="75" cy="75" r="70"/>
	</defs>
	<clipPath id="SVGID_3_">
		<use xlink:href="#SVGID_2_"  style="overflow:visible;"/>
	</clipPath>
	<g class="st1">
		<g>
			<polygon class="st2" points="39.8,35.9 60.5,63.7 60.5,63.5 65.3,62.4 44.7,34.8 			"/>
			<polygon class="st3" points="37.1,42 58.1,69.2 60.5,63.7 39.8,35.9 			"/>
			<polygon class="st4" points="60.5,63.5 64.6,69.4 64.7,69.3 69.4,68.1 65.4,62.4 			"/>
			<polygon class="st5" points="58.1,69.3 62.3,74.5 64.6,69.4 60.5,63.5 			"/>
		</g>
		<g>
			<polygon class="st6" points="75.7,171.7 75.7,177.6 81.4,174.3 81.4,168.4 81.4,168.4 			"/>
			<polygon class="st7" points="70,168.4 70,174.3 75.7,177.6 75.7,171.7 75.7,171.7 			"/>
		</g>
		<polygon class="st8" points="70,168.4 75.7,171.7 75.7,171.7 75.7,171.7 81.4,168.4 75.7,165.1 		"/>
		<g>
			<polygon class="st6" points="97.4,181.6 97.4,187.6 103,184.3 103,178.3 103,178.3 			"/>
			<polygon class="st9" points="91.7,178.3 91.7,184.3 97.4,187.6 97.4,181.6 97.4,181.6 91.7,178.4 			"/>
		</g>
		<polygon class="st8" points="91.7,178.4 97.4,181.6 97.4,181.6 97.4,181.6 103,178.3 97.4,175.1 		"/>
		<polygon class="st10" points="61.8,36.3 87.2,50.9 87.2,50.9 112.7,36.2 87.3,21.5 		"/>
		<g>
			<polygon class="st11" points="87.2,50.9 87.2,150.3 112.7,135.5 112.7,36.2 112.7,36.2 			"/>
			<polygon class="st12" points="61.5,36.2 61.5,135.5 87.2,150.3 87.2,50.9 87.2,50.9 61.8,36.3 			"/>
		</g>
		<path class="st13" d="M61.5,36.2v9c2.5,0.2,6.6,1.4,9,2.1c3.3,0.9,3.3,7.6,8.5,7.9c4.5,0.2,6.4,5.5,8,8.1c0.2,0.5,0.5,0.8,0.8,1
			c1.8,1.8,4.8,4.2,7.3,3.1c2.4-1.3,4.6-8.5,7.3-7.3c2.7,1.3-1.5,9.2-1.5,9.2l1.3,2.4l10.3-4.8l0.2-2.1V36.2l0,0L87.3,21.5
			L61.8,36.3L61.5,36.2z"/>
		<g>
			<polygon class="st14" points="75.7,131.8 75.7,171.7 81.4,168.4 81.4,128.5 81.4,128.5 			"/>
			<polygon class="st15" points="70,128.5 70,168.4 75.7,171.7 75.7,131.8 75.7,131.8 			"/>
			<polygon class="st8" points="70,128.5 75.7,131.8 75.7,131.8 75.7,131.8 81.4,128.5 75.7,125.2 			"/>
		</g>
		<g>
			<polygon class="st14" points="97.4,141.8 97.4,181.6 103,178.4 103,138.5 103,138.5 			"/>
			<polygon class="st15" points="91.7,138.5 91.7,178.4 97.4,181.6 97.4,141.8 97.4,141.8 			"/>
			<polygon class="st8" points="91.7,138.5 97.4,141.8 97.4,141.8 97.4,141.8 103,138.5 97.4,135.2 			"/>
		</g>
		<g>
			<polygon class="st16" points="87.2,144.3 87.2,158 112.7,143.3 112.7,129.5 112.7,129.5 			"/>
			<polygon class="st8" points="61.5,129.5 61.5,143.3 87.2,158 87.2,144.3 87.2,144.3 61.8,129.6 			"/>
		</g>
		<path class="st17" d="M67.7,74.1L66,69.8c-0.6-1.4,0.9-2.6,2.2-1.8l8.9,5.2c0.8,0.5,1,1.5,0.5,2.2l0,0
			C75.1,79,69.3,78.3,67.7,74.1z"/>
		
			<ellipse transform="matrix(0.8633 -0.5047 0.5047 0.8633 -22.0983 48.9352)" class="st18" cx="79.3" cy="65.3" rx="1.8" ry="3.2"/>
		
			<ellipse transform="matrix(0.8633 -0.5047 0.5047 0.8633 -20.4856 41.6297)" class="st18" cx="66.6" cy="58.6" rx="1.8" ry="3.2"/>
		<path class="st17" d="M87.3,107.5L61.5,94.4v14.5L87.2,120C87.3,120,86.7,107.5,87.3,107.5z"/>
		<polygon class="st19" points="61.5,94.4 61.5,135.5 87.2,150.3 87.2,150.3 112.7,135.5 112.7,94.6 87.3,107.5 87.2,107.6 
			80.3,110.5 73.7,100.9 67.4,103.1 		"/>
		<g>
			<polygon class="st2" points="103,99.2 103,134.9 108.3,131.8 108.3,96.1 108.3,96.1 			"/>
			<polygon class="st3" points="97.6,96.1 97.6,131.8 103,134.9 103,99.2 103,99.2 97.7,96.1 			"/>
			<polygon class="st8" points="97.7,96.1 103,99.2 103,99.2 103,99.2 108.3,96.1 103,93.1 			"/>
			<polygon class="st20" points="103,90 103,99.5 108.3,96.4 108.3,87 108.3,87 			"/>
			<polygon class="st21" points="97.6,87 97.6,96.4 103,99.5 103,90 103,90 97.7,87 			"/>
			<polygon class="st22" points="97.7,87 103,90 103,90 103,90 108.3,87 103,83.9 			"/>
		</g>
	</g>
	<use xlink:href="#SVGID_2_"  style="overflow:visible;fill:none;stroke:#C1C1C1;stroke-width:3.862;stroke-miterlimit:10;"/>
</g>
</svg>
