<?xml version="1.0" encoding="utf-8"?>
<!-- Generator: Adobe Illustrator 22.1.0, SVG Export Plug-In . SVG Version: 6.00 Build 0)  -->
<svg version="1.1" id="Capa_1" xmlns="http://www.w3.org/2000/svg" xmlns:xlink="http://www.w3.org/1999/xlink" x="0px" y="0px"
	 viewBox="0 0 150 150" style="enable-background:new 0 0 150 150;" xml:space="preserve">
<g>
	<polygon points="38.8,31.5 51.8,48.9 98.2,48.9 111.2,31.5 	"/>
	<path d="M112.7,25.7l0-20.3c0-1.6-1.3-2.9-2.9-2.9l-69.6,0c-1.6,0-2.9,1.3-2.9,2.9l0,20.3L112.7,25.7z"/>
	<path d="M54.7,54.7l0,89.9c0,0.8,0.3,1.5,0.8,2.1c0.5,0.5,1.3,0.9,2.1,0.8l34.8,0c0.8,0,1.5-0.3,2.1-0.8s0.8-1.3,0.8-2.1l0-89.9
		L54.7,54.7z M77.9,80.8c0,0.8-0.3,1.5-0.8,2.1c-0.5,0.5-1.3,0.8-2.1,0.8c-1.6,0-2.9-1.3-2.9-2.9V75c0-1.6,1.3-2.9,2.9-2.9
		c1.6,0,2.9,1.3,2.9,2.9L77.9,80.8z"/>
</g>
</svg>
