<?xml version="1.0" encoding="utf-8"?>
<!-- Generator: Adobe Illustrator 22.1.0, SVG Export Plug-In . SVG Version: 6.00 Build 0)  -->
<svg version="1.1" id="Layer_1" xmlns="http://www.w3.org/2000/svg" xmlns:xlink="http://www.w3.org/1999/xlink" x="0px" y="0px"
	 viewBox="0 0 150 150" style="enable-background:new 0 0 150 150;" xml:space="preserve">
<g>
	<path d="M87.1,128.3c-2.2,0-4.1,1.5-4.6,3.7c-0.4,1.6-1,3-1.8,4c-0.5,0.5-1.8,2.1-5.8,2.1s-5.4-1.6-5.8-2.1c-0.8-1-1.4-2.3-1.8-4
		c-0.5-2.2-2.4-3.7-4.6-3.7l0,0c-3,0-5.3,2.8-4.6,5.8c1.8,8.1,7.6,13.4,16.9,13.4s15-5.3,16.9-13.4
		C92.4,131.1,90.2,128.3,87.1,128.3L87.1,128.3z"/>
	<path d="M131.5,109.9c-5.6-7.4-16.6-11.7-16.6-44.6c0-33.8-14.9-47.4-28.8-50.7c-1.3-0.3-2.2-0.8-2.2-2.1v-1.1
		c0-4.8-3.9-8.9-8.7-8.9c0,0-0.1,0-0.1,0c0,0-0.1,0-0.1,0c-4.8,0-8.7,4.1-8.7,8.9v1.1c0,1.3-0.9,1.8-2.2,2.1
		c-14,3.3-28.8,16.9-28.8,50.7c0,32.9-11,37.2-16.6,44.6c-3.6,4.7-0.2,11.5,5.8,11.5h50.9h50.6C131.7,121.4,135,114.6,131.5,109.9z
		 M117.3,112H32.8c-1.4,0-2.1-1.6-1.2-2.6c2.5-2.9,5.3-6.7,7.6-12.1c3.5-8.2,5.2-18.7,5.2-32c0-13.5,2.5-24.1,7.6-31.5
		c4.5-6.6,10.1-9.1,14-10c3-0.7,5.2-2.1,6.7-3.8c1.2-1.3,3.2-1.4,4.3-0.1c1.8,2.1,4.3,3.3,6.8,3.9c3.9,0.9,9.5,3.4,14,10
		c5,7.4,7.6,17.9,7.6,31.5c0,13.3,1.7,23.8,5.2,32c2.4,5.5,5.2,9.4,7.8,12.3C119.3,110.5,118.6,112,117.3,112z"/>
</g>
</svg>
