<?xml version="1.0" encoding="utf-8"?>
<!-- Generator: Adobe Illustrator 22.1.0, SVG Export Plug-In . SVG Version: 6.00 Build 0)  -->
<svg version="1.1" id="Layer_1" xmlns="http://www.w3.org/2000/svg" xmlns:xlink="http://www.w3.org/1999/xlink" x="0px" y="0px"
	 viewBox="0 0 150 150" style="enable-background:new 0 0 150 150;" xml:space="preserve">
<style type="text/css">
	.st0{fill:#3DB39E;}
	.st1{fill:#37A18E;}
	.st2{fill:#F2F1EF;}
	.st3{fill:#E6E5E3;}
</style>
<circle class="st0" cx="75" cy="75" r="72.5"/>
<path class="st1" d="M135.7,35.5l-64.1,66.4l0.1,7.1h2.9l69.4-56C142.1,46.8,139.2,40.8,135.7,35.5z"/>
<path class="st2" d="M146.1,32.3l-12.8-12.7c-1.7-1.7-4.5-1.7-6.3,0L72.3,76.1L48.6,52.8c-1.7-1.7-4.5-1.7-6.3,0L30.9,64
	c-1.7,1.7-1.7,4.5,0,6.2l37.8,37.5c1,1,2.4,1.4,3.7,1.2c1.4,0.1,2.7-0.2,3.7-1.2l69.9-69.1C147.8,36.8,147.8,34,146.1,32.3z"/>
<path class="st3" d="M76.2,107.7l69.9-69.1c1.7-1.7,1.7-4.5,0-6.2l-2-1.9l-71.7,70.5L32.7,62.3L31,64c-1.7,1.7-1.7,4.5,0,6.2
	l37.8,37.5c1,1,2.4,1.4,3.7,1.2C73.9,109.1,75.2,108.8,76.2,107.7z"/>
</svg>
