<?xml version="1.0" encoding="utf-8"?>
<!-- Generator: Adobe Illustrator 22.1.0, SVG Export Plug-In . SVG Version: 6.00 Build 0)  -->
<svg version="1.1" id="Layer_1" xmlns="http://www.w3.org/2000/svg" xmlns:xlink="http://www.w3.org/1999/xlink" x="0px" y="0px"
	 viewBox="0 0 150 150" style="enable-background:new 0 0 150 150;" xml:space="preserve">
<g>
	<path d="M2.5,5.7v119.4c0,1.1,0.5,2.1,1.3,2.6l26.4,19c2,1.4,4.6-0.1,4.6-2.6V24.7c0-1.1-0.5-2.1-1.3-2.6L7.1,3.1
		C5.1,1.7,2.5,3.2,2.5,5.7z"/>
	<path d="M42,24.9v119.4c0,2.5,2.6,4.1,4.6,2.6L70,133.1c0.8-0.6,1.3-1.6,1.3-2.6V11.1c0-2.5-2.6-4.1-4.6-2.6L43.4,22.3
		C42.5,22.8,42,23.8,42,24.9z"/>
	<path d="M142.9,3.1l-26.4,19.1c-0.8,0.6-1.3,1.6-1.3,2.6v119.4c0,2.6,2.6,4.1,4.6,2.6l26.4-19.1c0.8-0.6,1.3-1.6,1.3-2.6V5.7
		C147.5,3.2,144.9,1.7,142.9,3.1z"/>
	<path d="M78.7,10.7v119.4c0,1.1,0.5,2.1,1.3,2.6l23.4,14c2,1.4,4.6-0.1,4.6-2.6V24.7c0-1.1-0.5-2.1-1.3-2.6L83.2,8
		C81.3,6.6,78.7,8.2,78.7,10.7z"/>
</g>
</svg>
