<?xml version="1.0" encoding="utf-8"?>
<!-- Generator: Adobe Illustrator 22.1.0, SVG Export Plug-In . SVG Version: 6.00 Build 0)  -->
<svg version="1.1" id="Capa_1" xmlns="http://www.w3.org/2000/svg" xmlns:xlink="http://www.w3.org/1999/xlink" x="0px" y="0px"
	 viewBox="0 0 150 150" style="enable-background:new 0 0 150 150;" xml:space="preserve">
<g>
	<g>
		<path d="M78.6,72.1V45.5c0-2,1.6-3.6,3.6-3.6H86c2,0,3.6,1.6,3.6,3.6v7.2c0,6.5,5.3,11.8,11.8,11.8h3.8c6.5,0,11.8-5.3,11.8-11.8
			V5h-8.2v47.6c0,2-1.6,3.6-3.6,3.6h-3.8c-2,0-3.6-1.6-3.6-3.6v-7.2c0-6.5-5.3-11.8-11.8-11.8h-3.8c-6.5,0-11.8,5.3-11.8,11.8v26.6
			H5V145h140V72.1H78.6z M86.5,88.5h8.2v8.2h-8.2V88.5z M86.5,104.3h16.4V88.6h8.2v23.9H86.5V104.3z M70.4,88.5h8.2v8.2h-8.2V88.5z
			 M70.4,104.3h8.2v8.2h-8.2V104.3z M53.9,88.5h8.2v8.2h-8.2V88.5z M53.9,104.3h8.2v8.2h-8.2V104.3z M37.5,88.5h8.2v8.2h-8.2
			C37.5,96.7,37.5,88.5,37.5,88.5z M37.5,104.3h8.2v8.2h-8.2C37.5,112.5,37.5,104.3,37.5,104.3z M29.4,128.2h-8.2V120h8.2V128.2z
			 M29.4,112.5h-8.2v-8.2h8.2V112.5z M29.4,96.7h-8.2v-8.2h8.2V96.7z M97.4,128.2H37.5V120h59.9V128.2z M111.1,128.2h-8.2V120h8.2
			V128.2z M127.5,128.2h-8.2V120h8.2V128.2z M127.5,112.5h-8.2v-8.2h8.2V112.5z M127.5,96.7h-8.2v-8.2h8.2V96.7z"/>
	</g>
</g>
</svg>
