<?xml version="1.0" encoding="utf-8"?>
<!-- Generator: Adobe Illustrator 22.1.0, SVG Export Plug-In . SVG Version: 6.00 Build 0)  -->
<svg version="1.1" id="Capa_1" xmlns="http://www.w3.org/2000/svg" xmlns:xlink="http://www.w3.org/1999/xlink" x="0px" y="0px"
	 viewBox="0 0 150 150" style="enable-background:new 0 0 150 150;" xml:space="preserve">
<style type="text/css">
	.st0{fill:#A42E2A;}
	.st1{fill:#D0652C;}
	.st2{fill:#CA4629;}
	.st3{fill:#80918A;}
	.st4{fill:#D3D1AF;}
	.st5{fill:#292F5C;}
	.st6{fill:#EDE4E4;}
	.st7{fill:#2A1516;}
	.st8{fill:#1C1315;}
	.st9{fill:#211F20;}
	.st10{fill:#9D4A3C;}
	.st11{fill:#2A3B3C;}
	.st12{fill:#323533;}
	.st13{fill:#F5E4E5;}
	.st14{fill:#171213;}
	.st15{fill:#758A7C;}
</style>
<g>
	<g>
		<polygon class="st0" points="40.5,33.2 40.5,65.9 50.9,72.7 50.9,40 40.5,33.2 		"/>
		<polygon class="st1" points="50.9,40 50.9,72.7 72.1,60.4 72.1,27.7 72,27.8 50.9,40 		"/>
		<polygon class="st2" points="40.5,33.2 50.9,40 50.9,40 50.9,40 72,27.8 61.6,21 		"/>
	</g>
	<g>
		<polygon class="st3" points="95.8,60.7 106.3,88.5 101.3,87.7 90.8,59.9 90.8,59.9 		"/>
		<polygon class="st4" points="99,56.8 109.5,84.6 106.3,88.5 95.8,60.7 95.8,60.7 99,56.8 		"/>
		<polygon class="st5" points="99,56.8 95.8,60.7 95.8,60.7 95.8,60.7 90.8,59.9 94,56 		"/>
		<polygon class="st0" points="93.1,53.6 95.9,61 90.9,60.2 88.1,52.8 88.1,52.8 		"/>
		<polygon class="st1" points="96.3,49.7 99.1,57 95.9,61 93.1,53.6 93.1,53.6 96.3,49.7 		"/>
		<polygon class="st6" points="96.3,49.7 93.1,53.6 93.1,53.6 93.1,53.6 88.1,52.8 91.3,48.9 		"/>
	</g>
	<g>
		<g>
			<polygon class="st7" points="74.8,134.1 73.3,138.8 69.6,134.7 71.2,130 71.2,130 			"/>
			<polygon class="st8" points="80.1,132.9 78.6,137.6 73.3,138.8 74.8,134.1 74.8,134.1 80.1,132.9 			"/>
		</g>
		<polygon class="st5" points="80.1,132.9 74.8,134.1 74.8,134.1 74.8,134.1 71.2,130 76.4,128.9 		"/>
		<g>
			<polygon class="st8" points="86.9,96.8 74.8,134.1 71.2,130 83.3,92.7 83.3,92.7 			"/>
			<polygon class="st9" points="92.2,95.7 80.1,133 74.8,134.1 86.9,96.8 86.9,96.8 92.2,95.7 			"/>
			<polygon class="st5" points="92.2,95.7 86.9,96.8 86.9,96.8 86.9,96.8 83.3,92.7 88.6,91.6 			"/>
		</g>
	</g>
	<polygon class="st10" points="96.4,14.8 75.3,27 75.3,27 54.1,14.7 75.2,2.5 	"/>
	<g>
		<polygon class="st3" points="75.3,27 75.3,109.6 54.1,97.3 54.1,14.7 54.1,14.7 		"/>
		<polygon class="st4" points="96.5,14.7 96.5,97.3 75.3,109.6 75.3,27 75.3,27 96.4,14.8 		"/>
	</g>
	<path class="st11" d="M96.5,14.7v7.5c-2,0.2-5.5,1.1-7.5,1.7c-2.8,0.8-2.8,6.3-7,6.6c-3.7,0.2-5.3,4.6-6.7,6.7
		c-0.2,0.3-0.4,0.6-0.6,0.9c-1.5,1.5-4,3.5-6,2.5c-2-1-3.8-7.1-6-6.1c-2.3,1,1.3,7.6,1.3,7.6l-1,2l-8.6-4l-0.2-1.7V14.7l0,0
		L75.2,2.5l21.2,12.3L96.5,14.7z"/>
	<g>
		<g>
			<polygon class="st7" points="78.4,142.6 79.1,147.5 74,145.5 73.3,140.6 73.3,140.6 			"/>
			<polygon class="st8" points="82.7,139.2 83.4,144.1 79.1,147.5 78.4,142.6 78.4,142.6 82.6,139.3 			"/>
		</g>
		<polygon class="st5" points="82.6,139.3 78.4,142.6 78.4,142.6 78.4,142.6 73.3,140.6 77.6,137.2 		"/>
		<g>
			<polygon class="st9" points="72.9,103.8 78.4,142.6 73.3,140.6 67.8,101.8 67.8,101.8 			"/>
			<polygon class="st12" points="77.2,100.4 82.7,139.3 78.4,142.6 72.9,103.8 72.9,103.8 77.1,100.4 			"/>
			<polygon class="st5" points="77.1,100.4 72.9,103.8 72.9,103.8 72.9,103.8 67.8,101.8 72.1,98.4 			"/>
		</g>
	</g>
	<g>
		<polygon class="st9" points="75.3,104.6 75.3,116 54.1,103.7 54.1,92.3 54.1,92.4 		"/>
		<polygon class="st12" points="96.5,92.4 96.5,103.7 75.3,116 75.3,104.6 75.3,104.6 96.4,92.4 		"/>
	</g>
	<path class="st13" d="M91.5,46.3l1.4-3.6c0.4-1.1-0.8-2.1-1.8-1.5l-7.4,4.3c-0.6,0.4-0.8,1.2-0.4,1.8l0,0
		C85.4,50.3,90.1,49.8,91.5,46.3z"/>
	<ellipse transform="matrix(0.502 -0.8648 0.8648 0.502 7.1016 90.147)" class="st14" cx="81.8" cy="38.9" rx="2.7" ry="1.5"/>
	<ellipse transform="matrix(0.502 -0.8648 0.8648 0.502 17.1502 96.4515)" class="st14" cx="92.3" cy="33.3" rx="2.7" ry="1.5"/>
	<path class="st13" d="M75.2,74.1l21.3-11v12.1l-21.3,9.3C75.2,84.4,75.7,74.1,75.2,74.1z"/>
	<polygon class="st15" points="96.5,63.1 96.5,97.3 75.3,109.6 75.3,109.6 54.1,97.3 54.1,63.2 75.2,74.1 75.3,74.1 80.9,76.5 
		86.4,68.5 91.7,70.3 	"/>
	<g>
		<path class="st0" d="M44.9,38.8l18.9,11c4.2,2.4,7.6,8.4,7.6,13.2s-3.4,6.8-7.6,4.4l-18.9-11V38.8z M47.2,42.9v12.3l16.6,9.6
			c2.9,1.7,5.3,0.3,5.3-3.1c0-3.4-2.4-7.5-5.3-9.2L47.2,42.9z"/>
	</g>
	<g>
		<polygon class="st3" points="59.9,64.2 59.9,94 55.5,91.4 55.5,61.7 55.5,61.7 		"/>
		<polygon class="st4" points="64.3,61.7 64.3,91.4 59.9,94 59.9,64.2 59.9,64.2 64.3,61.7 		"/>
		<polygon class="st5" points="64.3,61.7 59.9,64.2 59.9,64.2 59.9,64.2 55.5,61.7 59.9,59.2 		"/>
		<polygon class="st0" points="59.9,56.7 59.9,64.5 55.5,62 55.5,54.1 55.5,54.1 		"/>
		<polygon class="st1" points="64.3,54.1 64.3,62 59.9,64.5 59.9,56.7 59.9,56.7 64.3,54.1 		"/>
		<polygon class="st6" points="64.3,54.1 59.9,56.7 59.9,56.7 59.9,56.7 55.5,54.1 59.9,51.6 		"/>
	</g>
</g>
</svg>
