<svg xmlns="http://www.w3.org/2000/svg" xmlns:xlink="http://www.w3.org/1999/xlink" viewBox="0 0 253 253">
  <defs>
    <style>
      .cls-1 {
        fill: #42474b;
      }

      .cls-2, .cls-3 {
        stroke: none;
      }

      .cls-3 {
        fill: #fdfdfd;
      }

      .cls-4 {
        filter: url(#Path_234);
      }
    </style>
    <filter id="Path_234" x="0" y="0" width="253" height="253" filterUnits="userSpaceOnUse">
      <feOffset dx="3" dy="6" input="SourceAlpha"/>
      <feGaussianBlur stdDeviation="5" result="blur"/>
      <feFlood flood-opacity="0.161"/>
      <feComposite operator="in" in2="blur"/>
      <feComposite in="SourceGraphic"/>
    </filter>
  </defs>
  <g class="cls-4" transform="matrix(1, 0, 0, 1, 0, 0)">
    <g id="Path_234-2" data-name="Path 234" class="cls-1" transform="translate(12 9)">
      <path class="cls-2" d="M 111.5 218 C 104.2708358764648 218 97.04769897460938 217.2720031738281 90.03123474121094 215.8362274169922 C 83.19563293457031 214.4374694824219 76.47196960449219 212.3502960205078 70.04693603515625 209.6327667236328 C 63.73743438720703 206.9640655517578 57.65156555175781 203.6607055664063 51.95833206176758 199.8144378662109 C 46.31790161132813 196.0038299560547 41.01373291015625 191.6274719238281 36.19313430786133 186.8068695068359 C 31.37253379821777 181.9862670898438 26.99616622924805 176.6820983886719 23.18556594848633 171.0416717529297 C 19.33930015563965 165.3484344482422 16.03593254089355 159.2625732421875 13.36723327636719 152.9530639648438 C 10.64970016479492 146.5280303955078 8.562533378601074 139.8043670654297 7.163766860961914 132.9687652587891 C 5.728000164031982 125.9523010253906 5 118.7291641235352 5 111.5 C 5 104.2708358764648 5.728000164031982 97.04769897460938 7.163766860961914 90.03123474121094 C 8.562533378601074 83.19563293457031 10.64970016479492 76.47196960449219 13.36723327636719 70.04693603515625 C 16.03593254089355 63.73743438720703 19.33930015563965 57.65156555175781 23.18556594848633 51.95833206176758 C 26.99616622924805 46.31790161132813 31.37253379821777 41.01373291015625 36.19313430786133 36.19313430786133 C 41.01373291015625 31.37253379821777 46.31790161132813 26.99616622924805 51.95833206176758 23.18556594848633 C 57.65156555175781 19.33930015563965 63.73743438720703 16.03593254089355 70.04693603515625 13.36723327636719 C 76.47196960449219 10.64970016479492 83.19563293457031 8.562533378601074 90.03123474121094 7.163766860961914 C 97.04769897460938 5.728000164031982 104.2708358764648 5 111.5 5 C 118.7291641235352 5 125.9523010253906 5.728000164031982 132.9687652587891 7.163766860961914 C 139.8043670654297 8.562533378601074 146.5280303955078 10.64970016479492 152.9530639648438 13.36723327636719 C 159.2625732421875 16.03593254089355 165.3484344482422 19.33930015563965 171.0416717529297 23.18556594848633 C 176.6820983886719 26.99616622924805 181.9862670898438 31.37253379821777 186.8068695068359 36.19313430786133 C 191.6274719238281 41.01373291015625 196.0038299560547 46.31790161132813 199.8144378662109 51.95833206176758 C 203.6607055664063 57.65156555175781 206.9640655517578 63.73743438720703 209.6327667236328 70.04693603515625 C 212.3502960205078 76.47196960449219 214.4374694824219 83.19563293457031 215.8362274169922 90.03123474121094 C 217.2720031738281 97.04769897460938 218 104.2708358764648 218 111.5 C 218 118.7291641235352 217.2720031738281 125.9523010253906 215.8362274169922 132.9687652587891 C 214.4374694824219 139.8043670654297 212.3502960205078 146.5280303955078 209.6327667236328 152.9530639648438 C 206.9640655517578 159.2625732421875 203.6607055664063 165.3484344482422 199.8144378662109 171.0416717529297 C 196.0038299560547 176.6820983886719 191.6274719238281 181.9862670898438 186.8068695068359 186.8068695068359 C 181.9862670898438 191.6274719238281 176.6820983886719 196.0038299560547 171.0416717529297 199.8144378662109 C 165.3484344482422 203.6607055664063 159.2625732421875 206.9640655517578 152.9530639648438 209.6327667236328 C 146.5280303955078 212.3502960205078 139.8043670654297 214.4374694824219 132.9687652587891 215.8362274169922 C 125.9523010253906 217.2720031738281 118.7291641235352 218 111.5 218 Z"/>
      <path class="cls-3" d="M 111.5 10 C 55.53269958496094 10 10 55.53269958496094 10 111.5 C 10 167.4673156738281 55.53269958496094 213 111.5 213 C 167.4673156738281 213 213 167.4673156738281 213 111.5 C 213 55.53269958496094 167.4673156738281 10 111.5 10 M 111.5 0 C 173.0797271728516 0 223 49.92027282714844 223 111.5 C 223 173.0797271728516 173.0797271728516 223 111.5 223 C 49.92027282714844 223 0 173.0797271728516 0 111.5 C 0 49.92027282714844 49.92027282714844 0 111.5 0 Z"/>
    </g>
  </g>
</svg>
