<?xml version="1.0" encoding="utf-8"?>
<!-- Generator: Adobe Illustrator 22.1.0, SVG Export Plug-In . SVG Version: 6.00 Build 0)  -->
<svg version="1.1" id="Capa_1" xmlns="http://www.w3.org/2000/svg" xmlns:xlink="http://www.w3.org/1999/xlink" x="0px" y="0px"
	 viewBox="0 0 150 150" style="enable-background:new 0 0 150 150;" xml:space="preserve">
<style type="text/css">
	.st0{fill-rule:evenodd;clip-rule:evenodd;fill:url(#SVGID_1_);}
	.st1{fill:#FFFFFF;}
	.st2{opacity:0.3;fill:#FFFFFF;enable-background:new    ;}
</style>
<g>
	<linearGradient id="SVGID_1_" gradientUnits="userSpaceOnUse" x1="75" y1="147.4999" x2="75" y2="2.5001">
		<stop  offset="0" style="stop-color:#F5317F"/>
		<stop  offset="1" style="stop-color:#FF7C6E"/>
	</linearGradient>
	<circle class="st0" cx="75" cy="75" r="72.5"/>
	<g>
		<path id="Forma" class="st1" d="M42.9,55h64.1c2.2,0,4,1.8,4,4v4c0,2.2-1.8,4-4,4H42.9c-2.2,0-4-1.8-4-4v-4
			C38.9,56.8,40.7,55,42.9,55z M46.9,75h20c2.2,0,4,1.8,4,4v28.1c0,2.2-1.8,4-4,4h-20c-2.2,0-4-1.8-4-4V79
			C42.9,76.8,44.7,75,46.9,75z M83,75h20c2.2,0,4,1.8,4,4v28.1c0,2.2-1.8,4-4,4H83c-2.2,0-4-1.8-4-4V79C79,76.8,80.8,75,83,75z"/>
		<path id="Path" class="st2" d="M84.8,39.6c1.8-1.2,4.3-0.7,5.6,1.1c1.2,1.8,0.7,4.3-1.1,5.6L75,55.8l-14.2-9.5
			c-1.8-1.2-2.3-3.7-1.1-5.6c1.2-1.8,3.7-2.3,5.6-1.1l9.8,6.5L84.8,39.6z"/>
	</g>
</g>
</svg>
