<?xml version="1.0" encoding="utf-8"?>
<!-- Generator: Adobe Illustrator 22.1.0, SVG Export Plug-In . SVG Version: 6.00 Build 0)  -->
<svg version="1.1" id="Capa_1" xmlns="http://www.w3.org/2000/svg" xmlns:xlink="http://www.w3.org/1999/xlink" x="0px" y="0px"
	 viewBox="0 0 150 150" style="enable-background:new 0 0 150 150;" xml:space="preserve">
<g>
	<path d="M121.4,50.8l6.1-6.1c3.3-3.3,3.3-8.7,0-12c-3.3-3.3-8.7-3.3-12,0l-6.5,6.5c-6.8-4.7-14.5-8-22.6-9.6v-8.4H92
		c1.6,0,2.8-1.3,2.8-2.8V11c0-4.7-3.8-8.5-8.5-8.5H63.7c-4.7,0-8.5,3.8-8.5,8.5v7.4c0,1.6,1.3,2.8,2.8,2.8h5.7v8.4
		c-8.1,1.6-15.9,4.8-22.6,9.6l-6.5-6.5c-3.3-3.3-8.7-3.3-12,0c-3.3,3.3-3.3,8.7,0,12l6.1,6.1C20.2,61.3,15.5,74.5,15.5,88
		c0,32.8,26.7,59.5,59.5,59.5s59.5-26.7,59.5-59.5C134.5,74.5,129.8,61.3,121.4,50.8z M119.5,36.7c1.1-1.1,2.9-1.1,4,0
		c1.1,1.1,1.1,2.9,0,4l-5.9,5.9c-1.3-1.4-2.7-2.6-4.1-3.9L119.5,36.7z M60.8,11c0-1.6,1.3-2.8,2.8-2.8h22.7c1.6,0,2.8,1.3,2.8,2.8
		v4.5H60.8V11z M80.7,21.2v7.6c-3.8-0.4-7.6-0.4-11.3,0v-7.6H80.7z M26.5,36.7c1.1-1.1,2.9-1.1,4,0l6,6c-1.4,1.2-2.8,2.5-4.1,3.9
		l-5.9-5.9C25.4,39.6,25.4,37.8,26.5,36.7z M75,141.8c-29.7,0-53.8-24.1-53.8-53.8c0-13.1,4.8-25.7,13.4-35.5c2.4-2.7,5-5.2,7.9-7.3
		c7.1-5.4,15.6-9,24.5-10.4c2.7-0.4,5.4-0.6,8.1-0.6s5.4,0.2,8.1,0.6c8.9,1.3,17.3,4.9,24.5,10.4c2.9,2.2,5.5,4.6,7.9,7.3
		c8.6,9.8,13.4,22.4,13.4,35.5C128.8,117.7,104.7,141.8,75,141.8z"/>
	<path d="M75,96.5c4.7,0,8.5-3.8,8.5-8.5c0-3.7-2.4-6.8-5.7-8V59.7c0-1.6-1.3-2.8-2.8-2.8s-2.8,1.3-2.8,2.8V80
		c-3.3,1.2-5.7,4.3-5.7,8C66.5,92.7,70.3,96.5,75,96.5z M75,85.2c1.6,0,2.8,1.3,2.8,2.8s-1.3,2.8-2.8,2.8s-2.8-1.3-2.8-2.8
		S73.4,85.2,75,85.2z"/>
	<path d="M105.2,58.1c0-0.1-0.1-0.1-0.1-0.2c-0.1-0.1-0.1-0.1-0.2-0.2c-5-4.9-11.2-8.6-17.8-10.6c-1.5-0.4-3.1,0.4-3.5,1.9
		s0.4,3.1,1.9,3.5c5,1.5,9.6,4,13.5,7.4L97,62c-1.1,1.1-1.1,2.9,0,4c0.6,0.6,1.3,0.8,2,0.8c0.7,0,1.4-0.3,2-0.8l1.9-1.9
		c5.1,6,8.2,13.3,8.8,21.1H109c-1.6,0-2.8,1.3-2.8,2.8c0,1.6,1.3,2.8,2.8,2.8h2.7c-0.6,7.8-3.6,15.2-8.8,21.1l-1.9-1.9
		c-1.1-1.1-2.9-1.1-4,0c-1.1,1.1-1.1,2.9,0,4l1.9,1.9c-6,5.1-13.3,8.2-21.1,8.8V122c0-1.6-1.3-2.8-2.8-2.8s-2.8,1.3-2.8,2.8v2.7
		c-7.8-0.6-15.2-3.6-21.1-8.8l1.9-1.9c1.1-1.1,1.1-2.9,0-4c-1.1-1.1-2.9-1.1-4,0l-1.9,1.9c-5.1-6-8.2-13.3-8.8-21.1H41
		c1.6,0,2.8-1.3,2.8-2.8s-1.3-2.8-2.8-2.8h-2.7c0.6-7.8,3.6-15.2,8.8-21.1L49,66c0.6,0.6,1.3,0.8,2,0.8c0.7,0,1.5-0.3,2-0.8
		c1.1-1.1,1.1-2.9,0-4l-1.9-1.9c3.9-3.4,8.6-5.9,13.5-7.4c1.5-0.4,2.4-2,1.9-3.5s-2-2.4-3.5-1.9c-6.7,2-12.9,5.6-17.8,10.6
		c-0.1,0-0.1,0.1-0.2,0.2c0,0-0.1,0.1-0.1,0.2c-7.9,8-12.3,18.6-12.3,29.9c0,11.3,4.4,21.9,12.3,29.9c0,0.1,0.1,0.1,0.1,0.2
		c0,0,0.1,0.1,0.2,0.1c8,7.9,18.6,12.3,29.9,12.3c11.3,0,21.9-4.4,29.9-12.3c0.1,0,0.1-0.1,0.2-0.1c0,0,0.1-0.1,0.1-0.1
		c7.9-8,12.3-18.6,12.3-29.9C117.5,76.8,113.1,66.2,105.2,58.1z"/>
	<path d="M75,51.2c1.6,0,2.8-1.3,2.8-2.8s-1.3-2.8-2.8-2.8s-2.8,1.3-2.8,2.8S73.4,51.2,75,51.2z"/>
</g>
</svg>
