<?xml version="1.0" encoding="utf-8"?>
<!-- Generator: Adobe Illustrator 22.1.0, SVG Export Plug-In . SVG Version: 6.00 Build 0)  -->
<svg version="1.1" id="Capa_1" xmlns="http://www.w3.org/2000/svg" xmlns:xlink="http://www.w3.org/1999/xlink" x="0px" y="0px"
	 viewBox="0 0 150 150" style="enable-background:new 0 0 150 150;" xml:space="preserve">
<style type="text/css">
	.st0{opacity:0.3;enable-background:new    ;}
</style>
<g id="Stockholm-icons-_x2F_-Navigation-_x2F_-Route" transform="translate(760.000000, 404.000000)">
	<path id="Path-110" class="st0" d="M-714-365.3c-4,0-7.3-3.2-7.3-7.3s3.2-7.3,7.3-7.3h58c16,0,29,13,29,29s-13,29-29,29h-58
		c-8,0-14.5,6.5-14.5,14.5s6.5,14.5,14.5,14.5h65.3c4,0,7.3,3.2,7.3,7.3s-3.2,7.3-7.3,7.3H-714c-16,0-29-13-29-29s13-29,29-29h58
		c8,0,14.5-6.5,14.5-14.5s-6.5-14.5-14.5-14.5H-714z"/>
	<path id="Path-104_2_" d="M-701.6-355.9c2.8,2.8,2.8,7.4,0,10.3s-7.4,2.8-10.3,0l-21.8-21.8c-2.8-2.8-2.8-7.4,0-10.3l21.8-21.8
		c2.8-2.8,7.4-2.8,10.3,0s2.8,7.4,0,10.3l-16.6,16.6L-701.6-355.9z"/>
	<path id="Path-104-Copy_2_" d="M-668.4-268.9c-2.8,2.8-2.8,7.4,0,10.3s7.4,2.8,10.3,0l21.8-21.8c2.8-2.8,2.8-7.4,0-10.3l-21.8-21.8
		c-2.8-2.8-7.4-2.8-10.3,0s-2.8,7.4,0,10.3l16.6,16.6L-668.4-268.9z"/>
</g>
</svg>
