<?xml version="1.0" encoding="utf-8"?>
<!-- Generator: Adobe Illustrator 22.1.0, SVG Export Plug-In . SVG Version: 6.00 Build 0)  -->
<svg version="1.1" id="Capa_1" xmlns="http://www.w3.org/2000/svg" xmlns:xlink="http://www.w3.org/1999/xlink" x="0px" y="0px"
	 viewBox="0 0 150 150" style="enable-background:new 0 0 150 150;" xml:space="preserve">
<style type="text/css">
	.st0{fill:none;}
</style>
<path class="st0" d="M63,63h24v24H63V63z"/>
<path d="M26.7,131.4c0,8.9,7.3,16.1,16.1,16.1h64.4c8.9,0,16.1-7.3,16.1-16.1V50.8c0-8.9-7.3-16.1-16.1-16.1H42.8
	c-8.9,0-16.1,7.3-16.1,16.1V131.4z M123.3,10.6h-20.1l-5.7-5.7c-1.5-1.5-3.5-2.3-5.6-2.3H58.2c-2.1,0-4.2,0.9-5.6,2.3l-5.7,5.7H26.7
	c-4.4,0-8.1,3.6-8.1,8.1s3.6,8.1,8.1,8.1h96.7c4.4,0,8.1-3.6,8.1-8.1S127.8,10.6,123.3,10.6z"/>
</svg>
