<?xml version="1.0" encoding="utf-8"?>
<!-- Generator: Adobe Illustrator 22.1.0, SVG Export Plug-In . SVG Version: 6.00 Build 0)  -->
<svg version="1.1" id="Capa_1" xmlns="http://www.w3.org/2000/svg" xmlns:xlink="http://www.w3.org/1999/xlink" x="0px" y="0px"
	 viewBox="0 0 150 150" style="enable-background:new 0 0 150 150;" xml:space="preserve">
<g>
	<path d="M137.3,22.5H12.7C7.1,22.5,2.5,27,2.5,32.6v84.9c0,5.5,4.6,10.1,10.2,10.1h124.6c5.6,0,10.2-4.5,10.2-10.1V32.6
		C147.5,27,142.9,22.5,137.3,22.5z M142.7,117.4c0,2.9-2.4,5.3-5.4,5.3H12.7c-3,0-5.4-2.4-5.4-5.3V32.6c0-2.9,2.4-5.3,5.4-5.3h124.6
		c3,0,5.4,2.4,5.4,5.3V117.4z"/>
	<path d="M41.2,91.7H19.4c-1.3,0-2.4,1.1-2.4,2.4s1.1,2.4,2.4,2.4h21.8c1.3,0,2.4-1.1,2.4-2.4S42.5,91.7,41.2,91.7z"/>
	<path d="M72.6,91.7H50.8c-1.3,0-2.4,1.1-2.4,2.4s1.1,2.4,2.4,2.4h21.8c1.3,0,2.4-1.1,2.4-2.4S73.9,91.7,72.6,91.7z"/>
	<path d="M21.8,103.6h-2.4c-1.3,0-2.4,1.1-2.4,2.4s1.1,2.4,2.4,2.4h2.4c1.3,0,2.4-1.1,2.4-2.4S23.2,103.6,21.8,103.6z"/>
	<path d="M36.3,103.6h-4.8c-1.3,0-2.4,1.1-2.4,2.4s1.1,2.4,2.4,2.4h4.8c1.3,0,2.4-1.1,2.4-2.4S37.7,103.6,36.3,103.6z"/>
	<path d="M48.4,103.6H46c-1.3,0-2.4,1.1-2.4,2.4s1.1,2.4,2.4,2.4h2.4c1.3,0,2.4-1.1,2.4-2.4S49.8,103.6,48.4,103.6z"/>
	<path d="M62.9,103.6h-4.8c-1.3,0-2.4,1.1-2.4,2.4s1.1,2.4,2.4,2.4h4.8c1.3,0,2.4-1.1,2.4-2.4S64.3,103.6,62.9,103.6z"/>
	<path d="M70.9,104.3c-0.4,0.5-0.7,1.1-0.7,1.7s0.3,1.2,0.7,1.7c0.5,0.4,1.1,0.7,1.7,0.7s1.3-0.3,1.7-0.7c0.4-0.5,0.7-1.1,0.7-1.7
		s-0.3-1.2-0.7-1.7C73.4,103.4,71.7,103.4,70.9,104.3z"/>
	<path d="M22.4,75h14.5h3.6H55c3,0,5.4-2.4,5.4-5.4V50.5V47c0-3-2.4-5.4-5.4-5.4H36.9H22.4c-3,0-5.4,2.4-5.4,5.4v22.6
		C17,72.6,19.4,75,22.4,75z M31.5,60.7h-9.7v-4.8h9.7V60.7z M21.8,69.6v-4.2h9.7v4.2c0,0.2,0,0.4,0.1,0.6h-9.1
		C22.1,70.2,21.8,70,21.8,69.6z M55.7,60.7H46v-4.2c0-0.3,0.3-0.6,0.6-0.6H55c0.2,0,0.4,0,0.6-0.1C55.7,55.8,55.7,60.7,55.7,60.7z
		 M55.1,70.2H46c0-0.2,0.1-0.4,0.1-0.6v-4.2h9.7v4.2C55.7,70,55.4,70.2,55.1,70.2z M55.1,46.4c0.3,0,0.6,0.3,0.6,0.6v3.6
		c0,0.3-0.3,0.6-0.6,0.6h-8.4c-3,0-5.4,2.4-5.4,5.4v13.1c0,0.3-0.3,0.6-0.6,0.6h-3.6c-0.3,0-0.6-0.3-0.6-0.6V47
		c0-0.3,0.3-0.6,0.6-0.6H55.1z M22.4,46.4h9.1c0,0.2-0.1,0.4-0.1,0.6v4.2h-9.7V47C21.8,46.6,22.1,46.4,22.4,46.4z"/>
</g>
</svg>
