<?xml version="1.0" encoding="utf-8"?>
<!-- Generator: Adobe Illustrator 22.1.0, SVG Export Plug-In . SVG Version: 6.00 Build 0)  -->
<svg version="1.1" id="Capa_1" xmlns="http://www.w3.org/2000/svg" xmlns:xlink="http://www.w3.org/1999/xlink" x="0px" y="0px"
	 viewBox="0 0 150 150" style="enable-background:new 0 0 150 150;" xml:space="preserve">
<path id="Path-76" d="M73.9,96.7l20.5-20.5c5.7-5.7,7.1-14.3,3.5-21.5l-1.2-2.3c-3.6-7.2-2.2-15.8,3.5-21.5l25.4-25.4
	c1.8-1.8,4.8-1.8,6.6,0c0.4,0.4,0.6,0.8,0.9,1.2l10.3,20.5c7.9,15.7,4.8,34.7-7.6,47.1l-55.8,55.8c-13.5,13.5-33.5,18.2-51.6,12.2
	l-22.5-7.5c-2.4-0.8-3.8-3.4-2.9-5.9c0.2-0.7,0.6-1.3,1.1-1.8l24.7-24.7c5.7-5.7,14.3-7.1,21.5-3.5l2.3,1.2
	C59.6,103.7,68.2,102.3,73.9,96.7z"/>
</svg>
