<?xml version="1.0" encoding="utf-8"?>
<!-- Generator: Adobe Illustrator 22.1.0, SVG Export Plug-In . SVG Version: 6.00 Build 0)  -->
<svg version="1.1" id="Capa_1" xmlns="http://www.w3.org/2000/svg" xmlns:xlink="http://www.w3.org/1999/xlink" x="0px" y="0px"
	 viewBox="0 0 150 150" style="enable-background:new 0 0 150 150;" xml:space="preserve">
<style type="text/css">
	.st0{opacity:0.3;enable-background:new    ;}
</style>
<g id="Stockholm-icons-_x2F_-Code-_x2F_-Question-circle" transform="translate(346.000000, 401.000000)">
	<circle id="Oval-5_6_" class="st0" cx="-271" cy="-326" r="72.5"/>
	<path id="Combined-Shape_13_" d="M-271-297c4,0,7.3,3.2,7.3,7.3s-3.2,7.3-7.3,7.3s-7.3-3.2-7.3-7.3S-275-297-271-297z
		 M-281.2-305.2v-12h9.1c11.6,0,19.9-8.8,19.9-20.4c0-11.6-8.4-20.4-19.9-20.4c-11.7,0-19.8,8.8-19.8,20.4h-12.9
		c0-18.3,14.3-32.4,32.7-32.4s32.9,14.2,32.9,32.4c0,18.3-14.5,32.4-32.9,32.4H-281.2z"/>
</g>
</svg>
