<?xml version="1.0" encoding="utf-8"?>
<!-- Generator: Adobe Illustrator 22.1.0, SVG Export Plug-In . SVG Version: 6.00 Build 0)  -->
<svg version="1.1" id="Capa_1" xmlns="http://www.w3.org/2000/svg" xmlns:xlink="http://www.w3.org/1999/xlink" x="0px" y="0px"
	 viewBox="0 0 150 150" style="enable-background:new 0 0 150 150;" xml:space="preserve">
<style type="text/css">
	.st0{fill:#E2EBF0;}
	.st1{clip-path:url(#SVGID_3_);}
	.st2{fill:#A42E2A;}
	.st3{fill:#D0652C;}
	.st4{fill:#CA4629;}
	.st5{fill:#80918A;}
	.st6{fill:#D3D1AF;}
	.st7{fill:#292F5C;}
	.st8{fill:#EDE4E4;}
	.st9{fill:#2A1516;}
	.st10{fill:#1C1315;}
	.st11{fill:#211F20;}
	.st12{fill:#9D4A3C;}
	.st13{fill:#2A3B3C;}
	.st14{fill:#323533;}
	.st15{fill:#F5E4E5;}
	.st16{fill:#171213;}
	.st17{fill:#758A7C;}
</style>
<circle id="SVGID_1_" class="st0" cx="75" cy="75" r="70"/>
<g>
	<defs>
		<circle id="SVGID_2_" cx="75" cy="75" r="70"/>
	</defs>
	<clipPath id="SVGID_3_">
		<use xlink:href="#SVGID_2_"  style="overflow:visible;"/>
	</clipPath>
	<g class="st1">
		<g>
			<polygon class="st2" points="34.6,57 34.6,95.3 46.7,103.3 46.7,65 			"/>
			<polygon class="st3" points="46.7,65 46.7,103.3 71.6,88.9 71.6,50.5 71.5,50.7 			"/>
			<polygon class="st4" points="34.6,57 46.7,65 46.7,65 46.7,65 71.5,50.7 59.3,42.7 			"/>
		</g>
		<g>
			<polygon class="st5" points="99.4,89.2 111.7,121.8 105.8,120.9 93.5,88.3 93.5,88.3 			"/>
			<polygon class="st6" points="103.1,84.7 115.4,117.3 111.7,121.8 99.4,89.2 99.4,89.2 			"/>
			<polygon class="st7" points="103.1,84.7 99.4,89.2 99.4,89.2 99.4,89.2 93.5,88.3 97.3,83.7 			"/>
			<polygon class="st2" points="96.2,80.9 99.5,89.6 93.6,88.6 90.4,80 90.4,80 			"/>
			<polygon class="st3" points="100,76.3 103.3,84.9 99.5,89.6 96.2,80.9 96.2,80.9 			"/>
			<polygon class="st8" points="100,76.3 96.2,80.9 96.2,80.9 96.2,80.9 90.4,80 94.1,75.4 			"/>
		</g>
		<g>
			<g>
				<polygon class="st9" points="74.8,175.3 73,180.8 68.7,176 70.5,170.5 70.5,170.5 				"/>
				<polygon class="st10" points="81,173.9 79.2,179.4 73,180.8 74.8,175.3 74.8,175.3 				"/>
			</g>
			<polygon class="st7" points="81,173.9 74.8,175.3 74.8,175.3 74.8,175.3 70.5,170.5 76.6,169.2 			"/>
			<g>
				<polygon class="st10" points="89,131.6 74.8,175.3 70.5,170.5 84.7,126.8 84.7,126.8 				"/>
				<polygon class="st11" points="95.2,130.3 81,174 74.8,175.3 89,131.6 89,131.6 				"/>
				<polygon class="st7" points="95.2,130.3 89,131.6 89,131.6 89,131.6 84.7,126.8 90.9,125.5 				"/>
			</g>
		</g>
		<polygon class="st12" points="100.1,35.4 75.4,49.7 75.4,49.7 50.5,35.3 75.2,21 		"/>
		<g>
			<polygon class="st5" points="75.4,49.7 75.4,146.6 50.5,132.1 50.5,35.3 50.5,35.3 			"/>
			<polygon class="st6" points="100.2,35.3 100.2,132.1 75.4,146.6 75.4,49.7 75.4,49.7 100.1,35.4 			"/>
		</g>
		<path class="st13" d="M100.2,35.3v8.8c-2.3,0.2-6.4,1.3-8.8,2c-3.3,0.9-3.3,7.4-8.2,7.7c-4.3,0.2-6.2,5.4-7.9,7.9
			c-0.2,0.4-0.5,0.7-0.7,1.1c-1.8,1.8-4.7,4.1-7,2.9s-4.5-8.3-7-7.2c-2.7,1.2,1.5,8.9,1.5,8.9l-1.2,2.3l-10.1-4.7l-0.2-2V35.3l0,0
			L75.2,21l24.9,14.4L100.2,35.3z"/>
		<g>
			<g>
				<polygon class="st9" points="79,185.3 79.8,191 73.8,188.7 73,182.9 73,182.9 				"/>
				<polygon class="st10" points="84,181.3 84.8,187 79.8,191 79,185.3 79,185.3 83.9,181.4 				"/>
			</g>
			<polygon class="st7" points="83.9,181.4 79,185.3 79,185.3 79,185.3 73,182.9 78,178.9 			"/>
			<g>
				<polygon class="st11" points="72.5,139.8 79,185.3 73,182.9 66.6,137.4 66.6,137.4 				"/>
				<polygon class="st14" points="77.6,135.8 84,181.4 79,185.3 72.5,139.8 72.5,139.8 77.5,135.8 				"/>
				<polygon class="st7" points="77.5,135.8 72.5,139.8 72.5,139.8 72.5,139.8 66.6,137.4 71.6,133.4 				"/>
			</g>
		</g>
		<g>
			<polygon class="st11" points="75.4,140.7 75.4,154.1 50.5,139.6 50.5,126.3 50.5,126.4 			"/>
			<polygon class="st14" points="100.2,126.4 100.2,139.6 75.4,154.1 75.4,140.7 75.4,140.7 100.1,126.4 			"/>
		</g>
		<path class="st15" d="M94.3,72.4l1.6-4.2c0.5-1.3-0.9-2.5-2.1-1.8l-8.7,5c-0.7,0.5-0.9,1.4-0.5,2.1l0,0
			C87.2,77,92.7,76.5,94.3,72.4z"/>
		<ellipse transform="matrix(0.502 -0.8649 0.8649 0.502 -13.7835 103.4934)" class="st16" cx="83" cy="63.7" rx="3.2" ry="1.8"/>
		<ellipse transform="matrix(0.502 -0.8649 0.8649 0.502 -2.0017 110.8545)" class="st16" cx="95.3" cy="57.2" rx="3.2" ry="1.8"/>
		<path class="st15" d="M75.2,104.9l25-12.9v14.2l-25,10.9C75.2,117,75.8,104.9,75.2,104.9z"/>
		<polygon class="st17" points="100.2,92 100.2,132.1 75.4,146.6 75.4,146.6 50.5,132.1 50.5,92.2 75.2,104.9 75.4,104.9 
			81.9,107.8 88.4,98.4 94.6,100.5 		"/>
		<g>
			<path class="st2" d="M39.7,63.6l22.2,12.9c4.9,2.8,8.9,9.8,8.9,15.5c0,5.6-4,8-8.9,5.2L39.7,84.2V63.6z M42.4,68.4v14.4L61.9,94
				c3.4,2,6.2,0.4,6.2-3.6c0-4-2.8-8.8-6.2-10.8L42.4,68.4z"/>
		</g>
		<g>
			<polygon class="st5" points="57.3,93.3 57.3,128.3 52.1,125.2 52.1,90.4 52.1,90.4 			"/>
			<polygon class="st6" points="62.5,90.4 62.5,125.2 57.3,128.3 57.3,93.3 57.3,93.3 			"/>
			<polygon class="st7" points="62.5,90.4 57.3,93.3 57.3,93.3 57.3,93.3 52.1,90.4 57.3,87.5 			"/>
			<polygon class="st2" points="57.3,84.5 57.3,93.7 52.1,90.8 52.1,81.5 52.1,81.5 			"/>
			<polygon class="st3" points="62.5,81.5 62.5,90.8 57.3,93.7 57.3,84.5 57.3,84.5 			"/>
			<polygon class="st8" points="62.5,81.5 57.3,84.5 57.3,84.5 57.3,84.5 52.1,81.5 57.3,78.6 			"/>
		</g>
	</g>
	<use xlink:href="#SVGID_2_"  style="overflow:visible;fill:none;stroke:#C1C1C1;stroke-width:3.862;stroke-miterlimit:10;"/>
</g>
</svg>
