<?xml version="1.0" encoding="utf-8"?>
<!-- Generator: Adobe Illustrator 22.1.0, SVG Export Plug-In . SVG Version: 6.00 Build 0)  -->
<svg version="1.1" id="Capa_1" xmlns="http://www.w3.org/2000/svg" xmlns:xlink="http://www.w3.org/1999/xlink" x="0px" y="0px"
	 viewBox="0 0 150 150" style="enable-background:new 0 0 150 150;" xml:space="preserve">
<g>
	<g>
		<g>
			<path d="M125.7,51C125.7,51,125.7,51,125.7,51H4.6c-1.1,0-2.1,0.9-2.1,2.1c0,0,0,0,0,0v58.1c0,1.1,0.9,2.1,2.1,2.1c0,0,0,0,0,0
				h82.4c1.1,0,2.1-0.9,2.1-2.1c0-1.1-0.9-2.1-2.1-2.1H6.7v-54h117v5.2c0,1.1,0.9,2.1,2.1,2.1c0,0,0,0,0,0c1.1,0,2.1-0.9,2.1-2.1
				c0,0,0,0,0,0V53C127.8,51.9,126.8,51,125.7,51z"/>
		</g>
	</g>
	<g>
		<g>
			<path d="M111.6,41.3L14.7,19.5c-0.5-0.1-1.1,0-1.6,0.3c-0.5,0.3-0.8,0.8-0.9,1.3L7.4,42.9C7.1,44,7.9,45.1,9,45.4
				c1.1,0.2,2.2-0.5,2.5-1.6L15.8,24l94.9,21.3c0.2,0,0.3,0.1,0.5,0.1c1.1,0,2.1-0.9,2.1-2.1C113.2,42.4,112.6,41.5,111.6,41.3z"/>
		</g>
	</g>
	<g>
		<g>
			<path d="M99.9,29.3L41.7,5.1c-1-0.4-2.2,0-2.7,1l-4.8,9.7c-0.5,1-0.2,2.3,0.8,2.8c1,0.5,2.3,0.2,2.8-0.8c0,0,0-0.1,0.1-0.1v0l4-8
				l56.3,23.5c1.1,0.4,2.3-0.1,2.7-1.1C101.4,31,100.9,29.7,99.9,29.3z"/>
		</g>
	</g>
	<g>
		<g>
			<path d="M101.3,60.6H82.1c-1.1,0-2.1,0.9-2.1,2.1s0.9,2.1,2.1,2.1h19.2c1.1,0,2.1-0.9,2.1-2.1S102.5,60.6,101.3,60.6z"/>
		</g>
	</g>
	<g>
		<g>
			<path d="M62.7,60.8c-11.8,0-21.3,9.5-21.3,21.3c0,11.8,9.5,21.3,21.3,21.3c11.8,0,21.3-9.5,21.3-21.3S74.5,60.8,62.7,60.8z
				 M62.7,99.5c-9.6,0-17.4-7.8-17.4-17.4c0-9.6,7.8-17.4,17.4-17.4c9.6,0,17.4,7.8,17.4,17.4C80.2,91.7,72.3,99.5,62.7,99.5z"/>
		</g>
	</g>
	<g>
		<g>
			<path d="M120.9,67.6c-12.8,0-26.6,3-26.6,9.7v58.1c0,6.7,13.8,9.7,26.6,9.7s26.6-3,26.6-9.7V77.3
				C147.5,70.6,133.7,67.6,120.9,67.6z M142.7,135.4c-0.4,1.3-7.6,4.9-21.8,4.9s-21.4-3.5-21.8-4.8v-3.8c5.2,2.6,13.7,3.8,21.8,3.8
				s16.6-1.2,21.8-3.8V135.4z M142.7,125.7c-0.4,1.3-7.6,4.9-21.8,4.9s-21.4-3.5-21.8-4.8v-3.8c5.2,2.6,13.7,3.8,21.8,3.8
				s16.6-1.2,21.8-3.8V125.7z M142.7,116c-0.4,1.3-7.6,4.9-21.8,4.9s-21.4-3.5-21.8-4.8v-3.8c5.2,2.6,13.7,3.8,21.8,3.8
				s16.6-1.2,21.8-3.8V116z M142.7,106.3c-0.4,1.3-7.6,4.9-21.8,4.9s-21.4-3.5-21.8-4.8v-3.8c5.2,2.6,13.7,3.8,21.8,3.8
				s16.6-1.2,21.8-3.8V106.3z M142.7,96.6c-0.4,1.3-7.6,4.9-21.8,4.9s-21.4-3.5-21.8-4.8v-3.8c5.2,2.6,13.7,3.8,21.8,3.8
				s16.6-1.2,21.8-3.8V96.6z M142.7,86.9c-0.4,1.3-7.6,4.9-21.8,4.9s-21.4-3.5-21.8-4.8v-3.8c5.2,2.6,13.7,3.8,21.8,3.8
				s16.6-1.2,21.8-3.8V86.9z M120.9,82.1c-14.1,0-21.4-3.5-21.8-4.8v0c0.4-1.3,7.7-4.9,21.8-4.9c14.1,0,21.3,3.5,21.8,4.8
				C142.2,78.6,134.9,82.1,120.9,82.1z"/>
		</g>
	</g>
	<g>
		<g>
			<path d="M43.3,99.4H25l-8.7-9.5V74.2l9.6-9.4h17.4c1.1,0,2.1-0.9,2.1-2.1c0-1.1-0.9-2.1-2.1-2.1H25.1c-0.5,0-1.1,0.2-1.5,0.6
				L12.8,71.8c-0.4,0.5-0.6,1.1-0.6,1.7v17.2c0,0.5,0.2,1,0.5,1.4l9.8,10.8c0.4,0.4,0.9,0.7,1.5,0.7h19.2c1.1,0,2.1-0.9,2.1-2.1
				C45.4,100.3,44.5,99.4,43.3,99.4z"/>
		</g>
	</g>
	<g>
		<g>
			<path d="M63.9,79.7h-2.4c-0.8,0-1.2-0.4-1.2-0.6s0.5-0.6,1.2-0.6h6.1c1.3,0,2.4-1.1,2.4-2.4c0-1.3-1.1-2.4-2.4-2.4h-2.4
				c0-1.3-1.1-2.4-2.4-2.4c-1.3,0-2.4,1.1-2.4,2.4v0.1c-2.7,0.4-4.7,2.6-4.8,5.3c0.2,3.2,2.9,5.6,6.1,5.5h2.4c0.8,0,1.2,0.4,1.2,0.6
				s-0.5,0.6-1.2,0.6h-6.1c-1.3,0-2.4,1.1-2.4,2.4c0,1.3,1.1,2.4,2.4,2.4h2.4c0,1.3,1.1,2.4,2.4,2.4c1.3,0,2.4-1.1,2.4-2.4v-0.1
				c2.7-0.4,4.7-2.6,4.8-5.3C69.8,82,67.1,79.5,63.9,79.7z"/>
		</g>
	</g>
</g>
</svg>
