<?xml version="1.0" encoding="utf-8"?>
<!-- Generator: Adobe Illustrator 22.1.0, SVG Export Plug-In . SVG Version: 6.00 Build 0)  -->
<svg version="1.1" id="Capa_1" xmlns="http://www.w3.org/2000/svg" xmlns:xlink="http://www.w3.org/1999/xlink" x="0px" y="0px"
	 viewBox="0 0 150 150" style="enable-background:new 0 0 150 150;" xml:space="preserve">
<path id="Mask_7_" d="M32.4,62.2V45.1C32.4,21.6,51.4,2.5,75,2.5s42.6,19.1,42.6,42.6v17.1h8.5c9.4,0,17.1,7.6,17.1,17.1v51.2
	c0,9.4-7.6,17.1-17.1,17.1H23.8c-9.4,0-17.1-7.6-17.1-17.1V79.3c0-9.4,7.6-17.1,17.1-17.1H32.4z M75,19.6
	c-14.1,0-25.6,11.5-25.6,25.6v17.1h51.2V45.1C100.6,31,89.1,19.6,75,19.6z"/>
</svg>
