<?xml version="1.0" encoding="utf-8"?>
<!-- Generator: Adobe Illustrator 22.1.0, SVG Export Plug-In . SVG Version: 6.00 Build 0)  -->
<svg version="1.1" id="Capa_1" xmlns="http://www.w3.org/2000/svg" xmlns:xlink="http://www.w3.org/1999/xlink" x="0px" y="0px"
	 viewBox="0 0 150 150" style="enable-background:new 0 0 150 150;" xml:space="preserve">
<style type="text/css">
	.st0{fill:url(#Mark-2_1_);}
	.st1{fill:#42474B;}
	.st2{fill:#FDFDFD;}
</style>
<g id="Mark" transform="translate(-249 -1163)">
	
		<linearGradient id="Mark-2_1_" gradientUnits="userSpaceOnUse" x1="21.1111" y1="1632.3202" x2="21.1111" y2="1631.3196" gradientTransform="matrix(117 0 0 -144.9 -2146.0005 237688.8281)">
		<stop  offset="0" style="stop-color:#6207EF"/>
		<stop  offset="1" style="stop-color:#00BAFF"/>
	</linearGradient>
	<path id="Mark-2" class="st0" d="M324,1165.5c32.3,0,58.6,26.3,58.5,58.6c0,0,0,0,0,0c0,24.7-13.9,46.3-36.9,55.5
		c-20.1,7.7-21.6,17-21.6,30.8c-23.1-32.4-58.5-50.9-58.5-86.5C265.5,1191.7,291.7,1165.5,324,1165.5z"/>
	<circle id="Background" class="st1" cx="324.2" cy="1224.2" r="49.7"/>
	<g>
		<path class="st2" d="M309,1250.8c-0.4,2.1-1.5,3.7-3.4,4.8c-1.3,0.8-2.7,1.1-4.1,0.9c-2.7-0.3-4.7-1.7-5.9-4.2
			c-1.2-3.2-0.4-6,2.1-8.3c-0.1,0-0.3,0-0.4-0.1c-0.1,0-0.2,0-0.2-0.1c0-0.1,0-0.1,0.1-0.2c0.4-0.4,0.9-0.7,1.4-1
			c1.1-0.6,2.3-0.9,3.5-0.9c0.4,0,0.4,0,0.4-0.4c0.1-0.3,0.1-0.6,0.2-0.9c0.2-0.5,0.2-1.1,0.4-1.7c0.2-0.6,0.3-1.1,0.4-1.7
			c0.1-0.6,0.3-1.1,0.4-1.7c0.1-0.6,0.3-1.1,0.4-1.7c0,0,0-0.1,0-0.1c0-0.2,0.1-0.2,0.3-0.2c0.3,0,0.3,0,0.4-0.4
			c0.6-2.6,1.3-5.2,1.9-7.8c0.5-1.9,0.9-3.8,1.4-5.7c0.9-3.6,1.8-7.3,2.7-10.9c0.9-3.6,1.8-7.1,2.6-10.7c0-0.2,0.1-0.4,0.1-0.6
			c0.1-0.4-0.1-0.7-0.4-0.9c-0.3-0.1-0.5-0.1-0.8-0.2c-0.1,0-0.2,0-0.3,0.1c-0.4,0.4-0.8,0.4-1.2,0.1c-0.2-0.1-0.3-0.3-0.4-0.5
			c0-0.2-0.2-0.3-0.4-0.3c-0.5-0.1-1-0.2-1.5-0.2c-0.4,0-0.8,0.1-1.1,0.2c-0.4,0.1-0.8,0.2-1.1,0.2c-0.3,0-0.4-0.3-0.3-0.5
			c0-0.1,0.1-0.1,0.2-0.1c0.1,0,0.3,0,0.4,0c0.1,0,0.2-0.1,0.2-0.3c0-0.3,0-0.3,0.3-0.3c0.4,0,0.8,0,1.1,0c0,0,0,0,0.1,0
			c0.7,0,0.7,0,0.8-0.6c0.1-0.4,0.2-0.8,0.3-1.1c0-0.1,0.1-0.2,0.2-0.1c0.1,0.1,0.2,0,0.3,0c0.1-0.1,0.3-0.2,0.4-0.2
			c0.2,0,0.4,0,0.6-0.1c0.2,0,0.4,0,0.5,0c0,0,0,0,0.1,0c0.4,0,0.6,0.3,0.8,0.6c0.1,0.3,0.4,0.4,0.6,0.4c0.6,0.1,1.1,0.3,1.7,0.4
			c0.1,0,0.3,0.1,0.5,0c0.1,0,0.3,0,0.4,0.1c0.2,0.1,0.4,0.2,0.6,0.2c0.3,0.1,0.4,0.1,0.3,0.4c-0.1,0.6-0.3,1.2-0.4,1.9
			c-0.3,1.3-0.6,2.6-0.9,3.8c-0.5,2-1,4.1-1.5,6.1c-0.8,3.3-1.6,6.6-2.4,9.8c-0.6,2.4-1.1,4.8-1.7,7.1c-0.5,1.9-0.9,3.8-1.4,5.7
			c-0.4,1.5-0.7,2.9-1.1,4.3c-0.1,0.3-0.1,0.3,0.2,0.5c0.1,0.1,0.2,0.2,0.1,0.4c-0.1,0.4-0.2,0.8-0.3,1.2c-0.1,0.4,0,0.7,0.2,1
			c1.4,1.8,2.8,3.5,4.2,5.3c1.1,1.5,2.3,2.9,3.4,4.3c0.2,0.2,0.4,0.3,0.7,0.3c4.3,0,8.6,0,13,0c3.5,0,7,0,10.4,0c0.4,0,0.7,0,1,0
			c0.2,0,0.4,0,0.6-0.2c0.4-0.3,0.8-0.7,1.1-1.1c0.4-0.5,0.8-1.1,1.2-1.5c0.2-0.2,0.4-0.4,0.6-0.6c0.2-0.2,0.4-0.5,0.7-0.6
			c0,0,0.1-0.1,0-0.1c0,0-0.1,0-0.1,0c-0.1,0-0.2,0.1-0.3,0.1c-0.1,0-0.2,0-0.2-0.1c0-0.1,0-0.2,0-0.2c0.3-0.2,0.6-0.4,0.9-0.5
			c0.1,0,0.2,0,0.3,0.1c0.2,0.3,0.3,0.3,0.6,0.2c1.1-0.4,2.2-0.6,3.4-0.5c1.7,0.1,3.2,0.7,4.5,1.8c0.3,0.3,0.6,0.5,0.9,0.9
			c0.1,0.1,0.2,0.1,0.3,0.1c0.1-0.1,0.2,0,0.3,0.1c0.3,0.4,0.5,0.8,0.8,1.3c0.1,0.1,0.1,0.2,0,0.3c-0.1,0.1-0.1,0.3,0,0.4
			c0.1,0.2,0.2,0.4,0.3,0.7c0,0.2,0,0.3-0.2,0.3c-0.2,0-0.3-0.1-0.5-0.1c0,0.1,0,0.2,0,0.4c0.6,2.6,0,4.9-1.8,6.8
			c-1.1,1.2-2.6,1.9-4.2,2c-3.5,0.4-6.5-1.9-7.5-5c-0.1-0.4,0-0.4-0.6-0.4c-8.8,0-17.6,0-26.5,0c-0.6,0-1.2,0-1.8-0.1
			c-0.1,0-0.2,0-0.3,0c-0.2,0-0.4-0.1-0.5-0.3c-0.4-0.7-0.8-1.3-1.2-2c-0.1-0.2-0.3-0.4-0.4-0.6c-0.3-0.2-0.2-0.8,0.1-1
			c0.2-0.1,0.4-0.2,0.7-0.3c0.1,0,0.2,0,0.3-0.1c-0.1-0.3-0.4-0.5-0.5-0.7c-1.4-1.8-2.8-3.6-4.2-5.3c-0.1-0.1-0.2-0.2-0.3-0.3
			c-0.2-0.1-0.4-0.1-0.5,0c-0.1,0.2-0.3,0.3-0.2,0.6c0,0.1,0,0.3-0.1,0.4c-0.1,0.3-0.1,0.6-0.2,0.9c0,0.2,0,0.3,0.1,0.4
			c0.2,0.1,0.4,0.2,0.5,0.3c1.1,0.7,1.9,1.6,2.5,2.7c0.5,0.8,0.8,1.8,0.9,2.7c0.1,0.8,0.1,1.7-0.1,2.5c0,0.1,0,0.2-0.1,0.2
			c-0.1,0-0.1,0-0.2-0.1C309.1,1250.9,309.1,1250.8,309,1250.8C309,1250.8,309,1250.8,309,1250.8z M349.7,1245c-0.1,0-0.2,0-0.2,0.1
			c0,0.3,0,0.5-0.1,0.8c0,0.3,0,0.3,0.2,0.4c0.5,0.2,1,0.5,1.4,0.9c0.3,0.3,0.5,0.7,0.7,1c0,0.1,0.1,0.2,0.3,0.2
			c0.3,0,0.6-0.1,0.9-0.2c0.1,0,0.2-0.1,0.1-0.2c0-0.1,0-0.1-0.1-0.2c-0.4-1-1.1-1.8-2-2.3C350.6,1245.3,350.2,1245.1,349.7,1245z
			 M353.4,1249.6c0,0,0-0.1,0-0.1c0-0.3,0-0.3-0.3-0.3c-0.2,0-0.4,0.1-0.7,0.1c-0.3,0-0.2,0-0.3,0.3c0,1-0.4,1.8-1.1,2.5
			c-0.1,0.1-0.1,0.1-0.2,0.2c-0.1,0.1-0.1,0.2,0,0.3c0.1,0.2,0.3,0.5,0.4,0.7c0,0.1,0.1,0.1,0.2,0c0,0,0.1-0.1,0.2-0.1
			C352.7,1252.3,353.3,1251.1,353.4,1249.6z M348.5,1254.4c0.3,0,0.6-0.1,1-0.1c0.3,0,0.6-0.1,0.8-0.3c0.1,0,0.1-0.1,0.1-0.3
			c-0.1-0.2-0.2-0.4-0.3-0.5c-0.2-0.3-0.2-0.3-0.5-0.2c-0.8,0.2-1.5,0.2-2.2-0.1c-0.2-0.1-0.5-0.2-0.7-0.4c-0.1-0.1-0.3-0.1-0.4,0
			c-0.2,0.2-0.3,0.4-0.5,0.5c-0.2,0.2-0.1,0.2,0,0.4c0.1,0.1,0.3,0.2,0.4,0.3C347,1254.2,347.7,1254.4,348.5,1254.4z M345.9,1245.7
			c0.3,0,0.4,0,0.6,0.1c0.1,0.1,0.2,0.1,0.4,0.1c0.2,0,0.4-0.1,0.7,0c0.1,0,0.1,0,0.2,0c0.2-0.1,0.4,0,0.4,0.2
			c0,0.2,0.1,0.2,0.2,0.2c0.2,0,0.2-0.1,0.2-0.3c0-0.3,0.1-0.5,0.1-0.8c0-0.2,0-0.2-0.2-0.2c-0.3,0-0.6,0-0.9,0.1
			C347,1245,346.4,1245.3,345.9,1245.7z M344.7,1251c-0.2,0-0.3,0-0.5,0c-0.1,0-0.2,0.1-0.1,0.2c0.2,0.5,0.4,0.9,0.8,1.3
			c0.1,0.1,0.2,0.1,0.3,0c0.1-0.1,0.3-0.3,0.4-0.4c0.3-0.3,0.3-0.3,0-0.6C345.2,1251,345.4,1251,344.7,1251z M348.3,1251.9
			c0.4,0,0.6,0,0.7-0.2c0.1-0.1,0.1-0.3-0.1-0.5c-0.1-0.1-0.2-0.1-0.3,0c-0.3,0.2-0.6,0.2-0.9,0.3c-0.1,0-0.1,0-0.2,0
			c0,0-0.1,0.1-0.1,0.1c0,0.1,0,0.1,0.1,0.1C347.8,1251.8,348.1,1251.9,348.3,1251.9z M350.6,1250.5c0-0.3-0.2-0.5-0.3-0.7
			c-0.1-0.1-0.2-0.1-0.3,0c-0.1,0-0.1,0.1-0.1,0.3c0,0.2,0,0.4,0,0.6c0,0.2,0.1,0.4,0.2,0.6c0,0,0.1,0.1,0.2,0
			C350.4,1251,350.5,1250.8,350.6,1250.5z M349.4,1248.4c0.1,0.1,0.1,0.2,0.2,0.3c0.1,0.3,0.3,0.3,0.5,0.2c0.1,0,0.2,0,0.3,0
			c0.2,0,0.2-0.1,0.1-0.3C350.3,1248.2,349.8,1248.1,349.4,1248.4z M345.4,1246.6c0.1-0.1,0.3-0.1,0.4-0.1s0.2-0.1,0.2-0.2
			c0-0.1-0.1-0.1-0.2-0.1s-0.2,0-0.3,0c-0.1,0-0.2,0-0.3,0.1c0,0-0.1,0.1,0,0.2C345.3,1246.4,345.3,1246.5,345.4,1246.6z
			 M347.3,1245.9c-0.3,0-0.4,0-0.7,0.1c-0.1,0-0.2,0.1-0.2,0.2s0,0.2,0,0.2c0.1,0,0.1,0,0.2-0.1
			C346.8,1246.2,347,1246.1,347.3,1245.9C347.3,1246,347.3,1246,347.3,1245.9z M349.4,1247.9c0.3,0,0.4,0,0.4-0.1
			c0-0.1-0.1-0.2-0.4-0.2c-0.1,0-0.2,0-0.2,0.1s0,0.2,0,0.2C349.3,1248,349.4,1247.9,349.4,1247.9z M344.8,1247.3c0-0.2,0-0.4,0-0.6
			c-0.1,0.1-0.2,0.2-0.2,0.3C344.4,1247.2,344.4,1247.2,344.8,1247.3z"/>
	</g>
</g>
</svg>
