<?xml version="1.0" encoding="utf-8"?>
<!-- Generator: Adobe Illustrator 22.1.0, SVG Export Plug-In . SVG Version: 6.00 Build 0)  -->
<svg version="1.1" id="Capa_1" xmlns="http://www.w3.org/2000/svg" xmlns:xlink="http://www.w3.org/1999/xlink" x="0px" y="0px"
	 viewBox="0 0 150 150" style="enable-background:new 0 0 150 150;" xml:space="preserve">
<path d="M95.6,137.8"/>
<g>
	<g>
		<path d="M44.6,2.5c-8.8,0-15.9,6.8-15.9,15.2C28.7,29.2,44.6,46,44.6,46s15.9-16.9,15.9-28.3C60.5,9.3,53.4,2.5,44.6,2.5z
			 M33.3,17.7c0-6,5.1-10.9,11.3-10.9S56,11.7,56,17.7c0,6.3-6.6,15.6-11.4,21.5C39.9,33.4,33.3,23.9,33.3,17.7z"/>
		<ellipse cx="44.6" cy="17.7" rx="5.7" ry="5.4"/>
	</g>
	<path d="M65.3,63.1h71.3c6,0,10.9-4.9,10.9-10.8c0-6-4.9-10.8-10.9-10.8H53.3v0c-1.3,0-2.4,1.1-2.4,2.4c0,1.3,1,2.4,2.4,2.4v0h83.4
		c3.3,0,6,2.7,6,6c0,3.3-2.7,6-6,6H65.3c-5.3,0-9.7,4.3-9.7,9.6c0,5.3,4.3,9.6,9.7,9.6h25.4c3.3,0,6,2.7,6,6s-2.7,6-6,6H17
		c-8,0-14.5,6.5-14.5,14.5S9,118.6,17,118.6h76.1c2,0,3.6,1.6,3.6,3.6c0,2-1.6,3.6-3.6,3.6H52c-4.7,0-8.5,3.8-8.5,8.4
		c0,4.7,3.8,8.4,8.5,8.4h53.7v0c1.3,3.8,5.5,5.7,9.2,4.4s5.7-5.4,4.4-9.2c-0.7-2.1-2.4-3.7-4.4-4.4v-27h26.6c1.3,0,2.4-1.1,2.4-2.4
		V87.2c0-1.3-1.1-2.4-2.4-2.4h-29c-1.3,0-2.4,1.1-2.4,2.4v46.2c-2,0.7-3.7,2.3-4.4,4.4l-53.7,0c-2,0-3.6-1.6-3.6-3.6
		s1.6-3.6,3.6-3.6h41.1c4.7,0,8.5-3.8,8.5-8.4s-3.8-8.4-8.5-8.4H17c-5.3,0-9.7-4.3-9.7-9.6c0-5.3,4.3-9.6,9.7-9.6h73.7
		c6,0,10.9-4.9,10.9-10.8c0-6-4.9-10.8-10.9-10.8H65.3c-2.7,0-4.8-2.2-4.8-4.8C60.5,65.3,62.7,63.1,65.3,63.1z M114.9,89.6h24.2
		v12.1h-24.2V89.6z M112.5,137.9c1.3,0,2.4,1.1,2.4,2.4c0,0,0,0,0,0c0,1.3-1.1,2.4-2.4,2.4c-1.3,0-2.4-1.1-2.4-2.4
		C110.1,138.9,111.2,137.9,112.5,137.9z"/>
</g>
</svg>
