<?xml version="1.0" encoding="utf-8"?>
<!-- Generator: Adobe Illustrator 22.1.0, SVG Export Plug-In . SVG Version: 6.00 Build 0)  -->
<svg version="1.1" id="Capa_1" xmlns="http://www.w3.org/2000/svg" xmlns:xlink="http://www.w3.org/1999/xlink" x="0px" y="0px"
	 viewBox="0 0 150 150" style="enable-background:new 0 0 150 150;" xml:space="preserve">
<style type="text/css">
	.st0{opacity:0.3;enable-background:new    ;}
</style>
<g>
	<path id="Combined-Shape_292_" class="st0" d="M26.7,6.5h96.7c4.4,0,8.1,3.6,8.1,8.1v72.5c0,4.4-3.6,8.1-8.1,8.1H26.7
		c-4.4,0-8.1-3.6-8.1-8.1V14.6C18.6,10.1,22.2,6.5,26.7,6.5z M38.8,30.7c-2.2,0-4,1.8-4,4c0,2.2,1.8,4,4,4h48.3c2.2,0,4-1.8,4-4
		c0-2.2-1.8-4-4-4H38.8z M38.8,46.8c-2.2,0-4,1.8-4,4c0,2.2,1.8,4,4,4h24.2c2.2,0,4-1.8,4-4c0-2.2-1.8-4-4-4H38.8z"/>
	<path id="Combined-Shape_293_" d="M8.9,43.4L75,91.1l66.1-47.7c1.8-1.3,4.3-0.9,5.6,0.9c0.5,0.7,0.8,1.5,0.8,2.4v80.7
		c0,8.9-7.2,16.1-16.1,16.1H18.6c-8.9,0-16.1-7.2-16.1-16.1V46.6c0-2.2,1.8-4,4-4C7.4,42.6,8.2,42.9,8.9,43.4z"/>
</g>
</svg>
