<?xml version="1.0" encoding="utf-8"?>
<!-- Generator: Adobe Illustrator 22.1.0, SVG Export Plug-In . SVG Version: 6.00 Build 0)  -->
<svg version="1.1" id="Capa_1" xmlns="http://www.w3.org/2000/svg" xmlns:xlink="http://www.w3.org/1999/xlink" x="0px" y="0px"
	 viewBox="0 0 150 150" enable-background="new 0 0 150 150" xml:space="preserve">
<path fill="none" d="M63,63h24v24H63V63z"/>
<path d="M75,2.5C35,2.5,2.5,35,2.5,75S35,147.5,75,147.5S147.5,115,147.5,75S115,2.5,75,2.5z M75,143.5c-37.8,0-68.5-30.7-68.5-68.5
	S37.2,6.5,75,6.5s68.5,30.7,68.5,68.5S112.8,143.5,75,143.5z"/>
<path d="M103.1,48.1L60.5,90.7L46.9,77.1c-2.8-2.8-7.4-2.8-10.2,0s-2.8,7.4,0,10.2l18.8,18.8c2.8,2.8,7.4,2.8,10.2,0l47.8-47.8
	c2.8-2.8,2.8-7.4,0-10.2C110.6,45.3,106,45.3,103.1,48.1z"/>
</svg>
