<?xml version="1.0" encoding="utf-8"?>
<!-- Generator: Adobe Illustrator 22.1.0, SVG Export Plug-In . SVG Version: 6.00 Build 0)  -->
<svg version="1.1" id="Capa_1" xmlns="http://www.w3.org/2000/svg" xmlns:xlink="http://www.w3.org/1999/xlink" x="0px" y="0px"
	 viewBox="0 0 150 150" style="enable-background:new 0 0 150 150;" xml:space="preserve">
<path id="Combined-Shape_264_" d="M18.6,22.6h112.8c8.9,0,16.1,7.2,16.1,16.1v72.5c0,8.9-7.2,16.1-16.1,16.1H18.6
	c-8.9,0-16.1-7.2-16.1-16.1V38.8C2.5,29.9,9.7,22.6,18.6,22.6z M124.5,37.5L75,64.1L25.5,37.5c-2.9-1.6-6.6-0.5-8.2,2.5
	c-1.6,2.9-0.5,6.6,2.5,8.2l52.4,28.2c1.8,1,3.9,1,5.7,0l52.4-28.2c2.9-1.6,4-5.2,2.5-8.2C131.1,37,127.4,35.9,124.5,37.5z"/>
</svg>
