<?xml version="1.0" encoding="utf-8"?>
<!-- Generator: Adobe Illustrator 22.1.0, SVG Export Plug-In . SVG Version: 6.00 Build 0)  -->
<svg version="1.1" id="Layer_1" xmlns="http://www.w3.org/2000/svg" xmlns:xlink="http://www.w3.org/1999/xlink" x="0px" y="0px"
	 viewBox="0 0 150 150" style="enable-background:new 0 0 150 150;" xml:space="preserve">
<g>
	<g>
		<g>
			<path d="M119.2,14.4C108.5,6.6,95.9,2.5,82.7,2.5c-33.2,0-60.3,26.1-62.1,58.8L6.2,84.6c-1.4,2.2-1.4,4.9-0.1,7.2
				c1.3,2.3,3.6,3.7,6.2,3.7h8.1v21.3c0,14.6,10.4,27.2,24.6,30.1c0.2,0,0.3,0,0.5,0c1.1,0,2.1-0.8,2.3-1.9c0.3-1.3-0.6-2.5-1.8-2.8
				c-12.1-2.4-20.8-13.1-20.8-25.5V109h15.2c1.3,0,2.4-1.1,2.4-2.4s-1.1-2.4-2.4-2.4H25.2V93.2V64.7c0-0.4,0-0.9,0-1.3
				c0-0.2,0-0.3,0-0.5C26.2,32,51.6,7.2,82.7,7.2c12.2,0,23.9,3.8,33.8,11c1.1,0.8,2.5,0.5,3.3-0.5
				C120.5,16.6,120.2,15.1,119.2,14.4z M20.5,90.8L20.5,90.8h-8.1c-1.3,0-1.9-0.9-2.1-1.3c-0.2-0.4-0.6-1.4,0.1-2.5l10.2-16.6
				C20.5,70.5,20.5,90.8,20.5,90.8z"/>
		</g>
	</g>
	<g>
		<g>
			<path d="M126.6,20.7c-0.9-0.9-2.4-0.9-3.3,0c-0.9,0.9-0.9,2.4,0,3.3c10.9,10.9,16.8,25.3,16.8,40.6c0,20.9-8.1,40.5-22.9,55.2
				c-14.8,14.8-34.4,22.9-55.2,22.9h-3.7c-1.3,0-2.4,1.1-2.4,2.4c0,1.3,1.1,2.4,2.4,2.4H62c22.1,0,42.9-8.6,58.6-24.3
				c15.6-15.6,24.3-36.4,24.3-58.6C144.8,48.1,138.4,32.5,126.6,20.7z"/>
		</g>
	</g>
	<g>
		<g>
			<path d="M40.4,54.7c-2.5,0-4.4,2-4.4,4.4v8.5c0,2.5,2,4.4,4.4,4.4c2.5,0,4.4-2,4.4-4.4v-8.5C44.8,56.6,42.8,54.7,40.4,54.7z"/>
		</g>
	</g>
	<g>
		<g>
			<path d="M90.2,29.9c-14.7,0-26.6,12-26.7,26.6c0,0,0,0,0,0c0,13.8,10.5,25.1,23.9,26.5c0.9,0.1,1.8,0.1,2.7,0.1
				c14.7,0,26.7-12,26.7-26.7S104.9,29.9,90.2,29.9z M87.9,78.3c-3.9-0.4-7.6-1.9-10.7-4.2c-3-2.2-5.3-5.1-6.9-8.4
				c-0.5-1.1-0.9-2.3-1.3-3.5c-0.1-0.2-0.7-3.3-0.6-3.3h19.5V78.3z M87.9,54.2H68.4c1.1-10.2,9.2-18.4,19.5-19.5V54.2z M92.6,78.3
				V58.9h19.5C111,69.1,102.8,77.2,92.6,78.3z M92.6,54.2V34.7c3.8,0.4,7.5,1.9,10.7,4.2c2.6,1.9,4.8,4.4,6.3,7.3
				c0.2,0.4,0.4,0.8,0.6,1.3c0.5,1.1,0.9,2.2,1.2,3.4c0.1,0.3,0.7,3.4,0.6,3.4L92.6,54.2L92.6,54.2z"/>
		</g>
	</g>
</g>
</svg>
