<?xml version="1.0" encoding="utf-8"?>
<!-- Generator: Adobe Illustrator 22.1.0, SVG Export Plug-In . SVG Version: 6.00 Build 0)  -->
<svg version="1.1" id="Capa_1" xmlns="http://www.w3.org/2000/svg" xmlns:xlink="http://www.w3.org/1999/xlink" x="0px" y="0px"
	 viewBox="0 0 150 150" enable-background="new 0 0 150 150" xml:space="preserve">
<g>
	<path d="M105.4,2.5H44.6c-5.9,0-10.6,4.8-10.6,10.6v123.7c0,5.9,4.8,10.6,10.6,10.6h60.9c5.9,0,10.6-4.8,10.6-10.6V13.1
		C116.1,7.3,111.3,2.5,105.4,2.5z M38.8,21.8h72.5v91.8H38.8V21.8z M44.6,7.3h60.9c3.2,0,5.8,2.6,5.8,5.8V17H38.8v-3.9
		C38.8,9.9,41.4,7.3,44.6,7.3z M105.4,142.7H44.6c-3.2,0-5.8-2.6-5.8-5.8v-18.4h72.5v18.4C111.3,140.1,108.6,142.7,105.4,142.7z"/>
	<path d="M75,120.9c-5.3,0-9.7,4.3-9.7,9.7c0,5.3,4.3,9.7,9.7,9.7c5.3,0,9.7-4.3,9.7-9.7C84.7,125.3,80.3,120.9,75,120.9z M75,135.4
		c-2.7,0-4.8-2.2-4.8-4.8c0-2.7,2.2-4.8,4.8-4.8c2.7,0,4.8,2.2,4.8,4.8C79.8,133.2,77.7,135.4,75,135.4z"/>
	<path d="M65.3,14.6H75c1.3,0,2.4-1.1,2.4-2.4S76.3,9.8,75,9.8h-9.7c-1.3,0-2.4,1.1-2.4,2.4S64,14.6,65.3,14.6z"/>
	<path d="M82.3,14.6h2.4c1.3,0,2.4-1.1,2.4-2.4S86,9.8,84.7,9.8h-2.4c-1.3,0-2.4,1.1-2.4,2.4S80.9,14.6,82.3,14.6z"/>
	<path d="M139.3,13.5c-0.9-0.9-2.5-0.9-3.4,0c-0.9,0.9-0.9,2.5,0,3.4c9,9,9,23.7,0,32.8c-0.9,0.9-0.9,2.5,0,3.4
		c0.5,0.5,1.1,0.7,1.7,0.7s1.2-0.2,1.7-0.7C150.2,42.2,150.2,24.5,139.3,13.5z"/>
	<path d="M129.1,19c-0.9-0.9-2.5-0.9-3.4,0c-0.9,0.9-0.9,2.5,0,3.4c3,3,4.6,7,4.6,11.2s-1.6,8.2-4.6,11.2c-0.9,0.9-0.9,2.5,0,3.4
		c0.5,0.5,1.1,0.7,1.7,0.7s1.2-0.2,1.7-0.7c3.9-3.9,6.1-9.1,6.1-14.6S133,22.9,129.1,19z"/>
	<path d="M14.1,17c0.9-0.9,0.9-2.5,0-3.4c-0.9-0.9-2.5-0.9-3.4,0c-10.9,10.9-10.9,28.7,0,39.6c0.5,0.5,1.1,0.7,1.7,0.7
		s1.2-0.2,1.7-0.7c0.9-0.9,0.9-2.5,0-3.4C5.1,40.7,5.1,26,14.1,17z"/>
	<path d="M24.3,18.4c-0.9-0.9-2.5-0.9-3.4,0c-3.9,3.9-6.1,9.1-6.1,14.6s2.1,10.7,6.1,14.6c0.5,0.5,1.1,0.7,1.7,0.7s1.2-0.2,1.7-0.7
		c0.9-0.9,0.9-2.5,0-3.4c-3-3-4.6-7-4.6-11.2s1.6-8.2,4.6-11.2C25.2,20.8,25.2,19.3,24.3,18.4z"/>
</g>
</svg>
