<?xml version="1.0" encoding="utf-8"?>
<!-- Generator: Adobe Illustrator 22.1.0, SVG Export Plug-In . SVG Version: 6.00 Build 0)  -->
<svg version="1.1" id="Capa_1" xmlns="http://www.w3.org/2000/svg" xmlns:xlink="http://www.w3.org/1999/xlink" x="0px" y="0px"
	 viewBox="0 0 150 150" style="enable-background:new 0 0 150 150;" xml:space="preserve">
<style type="text/css">
	.st0{opacity:0.3;enable-background:new    ;}
</style>
<g id="Stockholm-icons-_x2F_-General-_x2F_-Smile" transform="translate(898.000000, 427.000000)">
	<path id="Combined-Shape_582_" class="st0" d="M-823-424.5L-823-424.5c40,0,72.5,32.5,72.5,72.5l0,0c0,40-32.5,72.5-72.5,72.5l0,0
		c-40,0-72.5-32.5-72.5-72.5l0,0C-895.5-392-863-424.5-823-424.5z"/>
	<path id="Path-56" d="M-865.3-333.5c-2.2-3.3-1.3-7.8,2-10.1c3.3-2.2,7.8-1.3,10.1,2c8.4,12.6,18.3,18.5,30.2,18.5
		s21.8-5.9,30.2-18.5c2.2-3.3,6.7-4.2,10.1-2c3.3,2.2,4.2,6.7,2,10.1c-10.9,16.4-25.2,25-42.3,25S-854.3-317.1-865.3-333.5z"/>
</g>
</svg>
