<?xml version="1.0" encoding="utf-8"?>
<!-- Generator: Adobe Illustrator 22.1.0, SVG Export Plug-In . SVG Version: 6.00 Build 0)  -->
<svg version="1.1" id="Capa_1" xmlns="http://www.w3.org/2000/svg" xmlns:xlink="http://www.w3.org/1999/xlink" x="0px" y="0px"
	 viewBox="0 0 150 150" style="enable-background:new 0 0 150 150;" xml:space="preserve">
<style type="text/css">
	.st0{opacity:0.3;enable-background:new    ;}
</style>
<g>
	<rect id="Rectangle-151" x="2.5" y="2.5" class="st0" width="72.5" height="145"/>
	<path id="Combined-Shape_171_" d="M20.6,129.4h27.2c6,1,9.1,4.1,9.1,9.1s-3,8-9.1,9.1H2.5v-45.3c0-6,3-9.1,9.1-9.1s9.1,3,9.1,9.1
		V129.4z M129.4,129.4v-27.2c1-6,4.1-9.1,9.1-9.1s8,3,9.1,9.1v45.3h-45.3c-6,0-9.1-3-9.1-9.1s3-9.1,9.1-9.1H129.4z M129.4,20.6
		h-27.2c-6-1-9.1-4.1-9.1-9.1s3-8,9.1-9.1h45.3v45.3c0,6-3,9.1-9.1,9.1s-9.1-3-9.1-9.1V20.6z M20.6,20.6v27.2c-1,6-4.1,9.1-9.1,9.1
		s-8-3-9.1-9.1V2.5h45.3c6,0,9.1,3,9.1,9.1s-3,9.1-9.1,9.1H20.6z"/>
</g>
</svg>
