<?xml version="1.0" encoding="utf-8"?>
<!-- Generator: Adobe Illustrator 22.1.0, SVG Export Plug-In . SVG Version: 6.00 Build 0)  -->
<svg version="1.1" id="Layer_1" xmlns="http://www.w3.org/2000/svg" xmlns:xlink="http://www.w3.org/1999/xlink" x="0px" y="0px"
	 viewBox="0 0 150 150" style="enable-background:new 0 0 150 150;" xml:space="preserve">
<path d="M29,13.7v112.2c0,2.7-2.2,4.9-4.9,4.9l0,0c-2.7,0-4.9-2.2-4.9-4.9V24.8h-5.6c-6.2,0-11.2,5-11.2,11.2v100.4
	c0,6.2,5,11.2,11.2,11.2h123.1c5.9,0,10.8-4.8,10.8-10.8V13.7c0-6.2-5-11.2-11.2-11.2L39.4,3.2C33.3,3.2,29,7.5,29,13.7z M52,24.8
	h29.3c2.7,0,4.9,2.2,4.9,4.9l0,0c0,2.7-2.2,4.9-4.9,4.9H52c-2.7,0-4.9-2.2-4.9-4.9l0,0C47.1,27,49.3,24.8,52,24.8z M52,80.6h51.6
	c2.7,0,4.9,2.2,4.9,4.9l0,0c0,2.7-2.2,4.9-4.9,4.9H52c-2.7,0-4.9-2.2-4.9-4.9l0,0C47.1,82.8,49.3,80.6,52,80.6z M120.3,118.2H52
	c-2.7,0-4.9-2.2-4.9-4.9l0,0c0-2.7,2.2-4.9,4.9-4.9h68.3c2.7,0,4.9,2.2,4.9,4.9l0,0C125.2,116,123,118.2,120.3,118.2z M120.3,62.5
	H52c-2.7,0-4.9-2.2-4.9-4.9l0,0c0-2.7,2.2-4.9,4.9-4.9h68.3c2.7,0,4.9,2.2,4.9,4.9l0,0C125.2,60.3,123,62.5,120.3,62.5z"/>
</svg>
