<?xml version="1.0" encoding="utf-8"?>
<!-- Generator: Adobe Illustrator 22.1.0, SVG Export Plug-In . SVG Version: 6.00 Build 0)  -->
<svg version="1.1" id="Capa_1" xmlns="http://www.w3.org/2000/svg" xmlns:xlink="http://www.w3.org/1999/xlink" x="0px" y="0px"
	 viewBox="0 0 150 150" style="enable-background:new 0 0 150 150;" xml:space="preserve">
<g>
	<ellipse cx="75" cy="82.2" rx="23.2" ry="23.1"/>
	<path d="M53.3,10L40,24.4H17c-8,0-14.5,6.5-14.5,14.4v86.7C2.5,133.5,9,140,17,140h116c8,0,14.5-6.5,14.5-14.4V38.9
		c0-7.9-6.5-14.4-14.5-14.4h-23L96.8,10H53.3z M75,118.3c-20,0-36.3-16.2-36.3-36.1S55,46.1,75,46.1s36.3,16.2,36.3,36.1
		S95,118.3,75,118.3z"/>
</g>
</svg>
