<?xml version="1.0" encoding="utf-8"?>
<!-- Generator: Adobe Illustrator 22.1.0, SVG Export Plug-In . SVG Version: 6.00 Build 0)  -->
<svg version="1.1" id="Capa_1" xmlns="http://www.w3.org/2000/svg" xmlns:xlink="http://www.w3.org/1999/xlink" x="0px" y="0px"
	 viewBox="0 0 150 150" style="enable-background:new 0 0 150 150;" xml:space="preserve">
<g>
	<g>
		<path d="M111.2,56.9c0-30-24.3-54.4-54.4-54.4c-30,0-54.4,24.3-54.4,54.4s24.3,54.4,54.4,54.4C86.9,111.2,111.2,86.9,111.2,56.9z
			 M56.9,97.7c-22.5,0-40.8-18.3-40.8-40.8s18.3-40.8,40.8-40.8c22.5,0,40.8,18.3,40.8,40.8S79.4,97.7,56.9,97.7z"/>
		<path d="M143.5,124.3L110.3,91c-5,7.7-11.5,14.3-19.2,19.2l33.3,33.3c5.3,5.3,13.9,5.3,19.2,0
			C148.8,138.2,148.8,129.6,143.5,124.3z"/>
	</g>
</g>
</svg>
