<?xml version="1.0" encoding="utf-8"?>
<!-- Generator: Adobe Illustrator 22.1.0, SVG Export Plug-In . SVG Version: 6.00 Build 0)  -->
<svg version="1.1" id="Capa_1" xmlns="http://www.w3.org/2000/svg" xmlns:xlink="http://www.w3.org/1999/xlink" x="0px" y="0px"
	 viewBox="0 0 150 150" style="enable-background:new 0 0 150 150;" xml:space="preserve">
<style type="text/css">
	.st0{fill:#D38355;}
	.st1{fill:#E4A463;}
	.st2{fill:#DABED8;}
	.st3{fill:#9F637A;}
	.st4{fill:#2A1516;}
	.st5{fill:#1E1414;}
	.st6{fill:#292F5C;}
	.st7{fill:#1C1315;}
	.st8{fill:#9D4A3C;}
	.st9{fill:#D48454;}
	.st10{fill:#E4A35D;}
	.st11{fill:#802222;}
	.st12{fill:#351E3D;}
	.st13{fill:#242B54;}
	.st14{fill:#331A3A;}
	.st15{fill:#F5E4E5;}
	.st16{fill:#171213;}
	.st17{fill:#D6B5D2;}
	.st18{fill:#9E6D7F;}
	.st19{fill:#D5B5D0;}
	.st20{fill:#EDE4E4;}
</style>
<g>
	<g>
		<polygon class="st0" points="44.3,15.1 62.4,39.3 62.4,39.2 66.6,38.2 48.6,14.1 		"/>
		<polygon class="st1" points="42,20.4 60.3,44.1 62.4,39.3 44.3,15.1 		"/>
		<polygon class="st2" points="62.4,39.2 66,44.3 66.1,44.2 70.2,43.2 66.7,38.2 		"/>
		<polygon class="st3" points="60.3,44.2 64,48.8 66,44.3 62.4,39.2 		"/>
	</g>
	<g>
		<polygon class="st4" points="75.7,133.6 75.7,138.8 80.6,135.9 80.6,130.7 80.6,130.7 		"/>
		<polygon class="st5" points="70.7,130.7 70.7,135.9 75.7,138.8 75.7,133.6 75.7,133.6 70.7,130.7 		"/>
	</g>
	<polygon class="st6" points="70.7,130.7 75.7,133.6 75.7,133.6 75.7,133.6 80.6,130.7 75.7,127.9 	"/>
	<g>
		<polygon class="st4" points="94.6,142.3 94.6,147.5 99.5,144.6 99.5,139.4 99.5,139.4 		"/>
		<polygon class="st7" points="89.6,139.4 89.6,144.6 94.6,147.5 94.6,142.3 94.6,142.3 89.6,139.5 		"/>
	</g>
	<polygon class="st6" points="89.6,139.5 94.6,142.3 94.6,142.3 94.6,142.3 99.5,139.4 94.6,136.6 	"/>
	<polygon class="st8" points="63.5,15.4 85.7,28.2 85.7,28.2 108,15.3 85.8,2.5 	"/>
	<g>
		<polygon class="st9" points="85.7,28.2 85.7,114.9 108,102 108,15.3 108,15.3 		"/>
		<polygon class="st10" points="63.3,15.3 63.3,102 85.7,114.9 85.7,28.2 85.7,28.2 63.5,15.4 		"/>
	</g>
	<path class="st11" d="M63.3,15.3v7.9c2.2,0.2,5.8,1.2,7.9,1.8c2.9,0.8,2.9,6.6,7.4,6.9c3.9,0.2,5.6,4.8,7,7.1
		c0.2,0.4,0.4,0.7,0.7,0.9c1.6,1.6,4.2,3.7,6.4,2.7c2.1-1.1,4-7.4,6.4-6.4c2.4,1.1-1.3,8-1.3,8l1.1,2.1l9-4.2l0.2-1.8V15.3l0,0
		L85.8,2.5L63.5,15.4L63.3,15.3z"/>
	<g>
		<polygon class="st12" points="75.7,98.8 75.7,133.6 80.6,130.7 80.6,95.9 80.6,95.9 		"/>
		<polygon class="st13" points="70.7,95.9 70.7,130.7 75.7,133.6 75.7,98.8 75.7,98.8 70.7,95.9 		"/>
		<polygon class="st6" points="70.7,95.9 75.7,98.8 75.7,98.8 75.7,98.8 80.6,95.9 75.7,93 		"/>
	</g>
	<g>
		<polygon class="st12" points="94.6,107.5 94.6,142.3 99.5,139.5 99.5,104.6 99.5,104.6 		"/>
		<polygon class="st13" points="89.6,104.6 89.6,139.5 94.6,142.3 94.6,107.5 94.6,107.5 89.6,104.6 		"/>
		<polygon class="st6" points="89.6,104.6 94.6,107.5 94.6,107.5 94.6,107.5 99.5,104.6 94.6,101.8 		"/>
	</g>
	<g>
		<polygon class="st14" points="85.7,109.7 85.7,121.7 108,108.8 108,96.8 108,96.8 		"/>
		<polygon class="st6" points="63.3,96.8 63.3,108.8 85.7,121.7 85.7,109.7 85.7,109.7 63.5,96.9 		"/>
	</g>
	<path class="st15" d="M68.7,48.4l-1.5-3.7c-0.5-1.2,0.8-2.3,1.9-1.6l7.8,4.5c0.7,0.4,0.9,1.3,0.4,1.9l0,0
		C75.1,52.7,70.1,52.1,68.7,48.4z"/>
	<ellipse transform="matrix(0.8633 -0.5047 0.5047 0.8633 -9.7805 45.3351)" class="st16" cx="78.8" cy="40.7" rx="1.6" ry="2.8"/>
	<ellipse transform="matrix(0.8633 -0.5047 0.5047 0.8633 -8.3392 38.9525)" class="st16" cx="67.7" cy="34.9" rx="1.6" ry="2.8"/>
	<path class="st15" d="M85.8,77.6L63.3,66.1v12.7l22.4,9.7C85.8,88.5,85.3,77.6,85.8,77.6z"/>
	<polygon class="st17" points="63.3,66.1 63.3,102 85.7,114.9 85.7,114.9 108,102 108,66.3 85.8,77.6 85.7,77.7 79.7,80.2 
		73.9,71.8 68.4,73.7 	"/>
	<g>
		<polygon class="st0" points="99.5,70.3 99.5,101.5 104.1,98.8 104.1,67.6 104.1,67.6 		"/>
		<polygon class="st1" points="94.8,67.6 94.8,98.8 99.5,101.5 99.5,70.3 99.5,70.3 94.9,67.6 		"/>
		<polygon class="st6" points="94.9,67.6 99.5,70.3 99.5,70.3 99.5,70.3 104.1,67.6 99.5,65 		"/>
		<polygon class="st18" points="99.5,62.3 99.5,70.6 104.1,67.9 104.1,59.7 104.1,59.7 		"/>
		<polygon class="st19" points="94.8,59.7 94.8,67.9 99.5,70.6 99.5,62.3 99.5,62.3 94.9,59.7 		"/>
		<polygon class="st20" points="94.9,59.7 99.5,62.3 99.5,62.3 99.5,62.3 104.1,59.7 99.5,57 		"/>
	</g>
</g>
</svg>
