<?xml version="1.0" encoding="utf-8"?>
<!-- Generator: Adobe Illustrator 22.1.0, SVG Export Plug-In . SVG Version: 6.00 Build 0)  -->
<svg version="1.1" id="Capa_1" xmlns="http://www.w3.org/2000/svg" xmlns:xlink="http://www.w3.org/1999/xlink" x="0px" y="0px"
	 viewBox="0 0 150 150" style="enable-background:new 0 0 150 150;" xml:space="preserve">
<style type="text/css">
	.st0{fill:none;}
</style>
<path class="st0" d="M63,63h24v24H63V63z"/>
<path d="M75,48.8c-14.5,0-26.2,11.7-26.2,26.2s11.7,26.2,26.2,26.2s26.2-11.7,26.2-26.2S89.5,48.8,75,48.8z M133.5,68.5
	c-3-27.3-24.7-49-52-52V3H68.5v13.5c-27.3,3-49,24.7-52,52H3v13.1h13.5c3,27.3,24.7,49,52,52V147h13.1v-13.5c27.3-3,49-24.7,52-52
	H147V68.5C147,68.5,133.5,68.5,133.5,68.5z M75,120.8c-25.3,0-45.8-20.5-45.8-45.8S49.7,29.2,75,29.2s45.8,20.5,45.8,45.8
	S100.3,120.8,75,120.8z"/>
</svg>
