<?xml version="1.0" encoding="utf-8"?>
<!-- Generator: Adobe Illustrator 22.1.0, SVG Export Plug-In . SVG Version: 6.00 Build 0)  -->
<svg version="1.1" id="Capa_1" xmlns="http://www.w3.org/2000/svg" xmlns:xlink="http://www.w3.org/1999/xlink" x="0px" y="0px"
	 viewBox="0 0 150 150" style="enable-background:new 0 0 150 150;" xml:space="preserve">
<g id="icon_credit_card_mastercard" transform="translate(-2.5 -22.5)">
	<path id="Path_176" d="M139.8,45H15.2C9.6,45,5.1,49.4,5,55V140c0.1,5.6,4.6,10.1,10.2,10.1h124.6c5.6,0,10.1-4.4,10.2-10.1V55
		C149.9,49.4,145.4,45,139.8,45z M145.2,140c0,2.9-2.5,5.3-5.4,5.3H15.2c-2.9,0-5.4-2.3-5.4-5.3V55c0-2.9,2.5-5.3,5.4-5.3h124.6
		c2.9,0,5.4,2.3,5.4,5.3V140z"/>
	<path id="Path_177" d="M43.7,114.2H21.9c-1.3,0-2.4,1.1-2.4,2.4s1.1,2.4,2.4,2.4h21.8c1.3,0,2.4-1.1,2.4-2.4S45,114.2,43.7,114.2z"
		/>
	<path id="Path_178" d="M75.1,114.2H53.3c-1.3,0-2.4,1.1-2.4,2.4s1.1,2.4,2.4,2.4h21.8c1.3,0,2.4-1.1,2.4-2.4S76.4,114.2,75.1,114.2
		z"/>
	<path id="Path_179" d="M24.3,126.2h-2.4c-1.3,0-2.4,1.1-2.4,2.4c0,1.3,1.1,2.4,2.4,2.4h2.4c1.3,0,2.4-1.1,2.4-2.4
		C26.7,127.2,25.7,126.2,24.3,126.2L24.3,126.2z"/>
	<path id="Path_180" d="M38.8,126.2H34c-1.3,0-2.4,1.1-2.4,2.4c0,1.3,1.1,2.4,2.4,2.4h4.8c1.3,0,2.4-1.1,2.4-2.4
		C41.2,127.2,40.2,126.2,38.8,126.2L38.8,126.2z"/>
	<path id="Path_181" d="M50.9,126.2h-2.4c-1.3,0-2.4,1.1-2.4,2.4c0,1.3,1.1,2.4,2.4,2.4h2.4c1.3,0,2.4-1.1,2.4-2.4
		C53.3,127.2,52.3,126.2,50.9,126.2L50.9,126.2z"/>
	<path id="Path_182" d="M65.4,126.2h-4.8c-1.3,0-2.4,1.1-2.4,2.4c0,1.3,1.1,2.4,2.4,2.4h4.8c1.3,0,2.4-1.1,2.4-2.4
		C67.8,127.2,66.8,126.2,65.4,126.2L65.4,126.2z"/>
	<path id="Path_183" d="M73.4,126.9c-0.9,0.9-0.9,2.4,0,3.4l0,0c0.5,0.4,1.1,0.7,1.7,0.7s1.2-0.3,1.7-0.7c0.9-0.9,0.9-2.4,0-3.4l0,0
		C75.8,126,74.4,126,73.4,126.9z"/>
	<path id="Path_184" d="M121,104.7c-3,0-5.9,0.8-8.5,2.3c-2.6-1.5-5.5-2.3-8.5-2.3c-9.2-0.2-16.7,7.2-16.9,16.4s7.1,16.8,16.3,17
		c0.2,0,0.4,0,0.6,0c3,0,5.9-0.8,8.5-2.3c2.6,1.5,5.5,2.3,8.5,2.3c9.2,0.2,16.7-7.2,16.9-16.4c0.2-9.3-7.1-16.8-16.3-17
		C121.4,104.7,121.2,104.7,121,104.7z M116.2,121.4c0,3.2-1.3,6.2-3.6,8.5c-4.7-4.5-4.8-12-0.3-16.6c0.1-0.1,0.2-0.2,0.3-0.3
		C114.9,115.1,116.2,118.2,116.2,121.4L116.2,121.4z M92,121.4c0.1-6.7,5.5-12,12-11.9c0,0,0,0,0.1,0c1.5,0,2.9,0.3,4.3,0.8
		c-2.8,3-4.3,7-4.3,11.1s1.5,8.1,4.3,11.1c-1.4,0.5-2.8,0.8-4.3,0.8C97.5,133.4,92.1,128.1,92,121.4z M121,133.3
		c-1.5,0-2.9-0.3-4.3-0.8c2.8-3,4.3-7,4.3-11.1s-1.5-8.1-4.3-11.1c1.4-0.5,2.8-0.8,4.3-0.8c6.5-0.2,12,5,12.1,11.6
		c0.2,6.5-5,12.1-11.5,12.2C121.4,133.3,121.2,133.3,121,133.3L121,133.3z"/>
	<path id="Path_185" d="M24.9,97.6h32.6c3,0,5.4-2.4,5.4-5.3l0,0V69.4c0-3-2.4-5.4-5.4-5.4l0,0H24.9c-3,0-5.4,2.4-5.4,5.3l0,0v22.6
		C19.5,95,21.9,97.4,24.9,97.6L24.9,97.6z M34,83.1h-9.7v-4.8H34V83.1z M24.3,92.1v-4.2H34v4.2c0,0.2,0,0.4,0.1,0.6H25
		C24.6,92.7,24.3,92.5,24.3,92.1L24.3,92.1z M58.2,83.1h-9.7v-4.2c0-0.3,0.3-0.6,0.6-0.6h8.4c0.2,0,0.4,0,0.6-0.1
		C58.2,78.3,58.2,83.1,58.2,83.1z M57.6,92.7h-9.1c0-0.2,0.1-0.4,0.1-0.6v-4.2h9.7v4.2C58.2,92.4,57.9,92.7,57.6,92.7z M57.6,68.8
		c0.3,0,0.6,0.3,0.6,0.6v3.6c0,0.3-0.3,0.6-0.6,0.6h-8.4c-3,0-5.4,2.4-5.4,5.3l0,0v13.1c0,0.3-0.3,0.6-0.6,0.6h-3.6
		c-0.3,0-0.6-0.3-0.6-0.6V69.4c0-0.3,0.3-0.6,0.6-0.6H57.6z M24.9,68.8H34c0,0.2-0.1,0.4-0.1,0.6v4.2h-9.7v-4.2
		C24.3,69.1,24.6,68.8,24.9,68.8L24.9,68.8z"/>
</g>
</svg>
