<?xml version="1.0" encoding="utf-8"?>
<!-- Generator: Adobe Illustrator 22.1.0, SVG Export Plug-In . SVG Version: 6.00 Build 0)  -->
<svg version="1.1" id="Capa_1" xmlns="http://www.w3.org/2000/svg" xmlns:xlink="http://www.w3.org/1999/xlink" x="0px" y="0px"
	 viewBox="0 0 150 150" style="enable-background:new 0 0 150 150;" xml:space="preserve">
<g>
	<g>
		<path d="M18.2,115.7c-1.9,0-3.6,1.6-3.6,3.6s1.6,3.6,3.6,3.6c1.9,0,3.6-1.6,3.6-3.6C21.7,117.4,20.1,115.7,18.2,115.7z"/>
		<path d="M110.6,115.7c-1.9,0-3.6,1.6-3.6,3.6c0,1.9,1.6,3.6,3.6,3.6c1.9,0,3.6-1.6,3.6-3.6C114.2,117.4,112.6,115.7,110.6,115.7z"
			/>
		<path d="M112.9,100.8L90,17.9c-0.3-1.2-1.5-2.1-2.7-2.1h-6.6c-1.6,0-2.9,1.3-2.9,2.9s1.3,2.9,2.9,2.9h4.4l7.2,26
			c-0.2,0-0.3,0-0.5,0.1c-1.5,0.4-2.4,2-2,3.5l14,50.8c-6,2.4-10.6,7.9-11.6,14.5H36.6c-1.4-8.9-9.1-15.8-18.5-15.8H5.4
			c-1.6,0-2.9,1.3-2.9,2.9c0,1.6,1.3,2.9,2.9,2.9h5.8c-4.6,2.5-7.8,7.3-7.8,12.9c0,8.1,6.6,14.8,14.8,14.8c7.3,0,13.3-5.2,14.5-12.2
			c0.3,0.2,0.9,0.3,1.3,0.3h60.8c0.4,0,1-0.1,1.3-0.3c1.2,6.9,7.3,12.2,14.5,12.2c7.3,0,13.3-5.2,14.5-12.2c0.3,0.2,0.9,0.3,1.3,0.3
			c1.6,0,2.9-1.3,2.9-2.9C129.4,109.8,122.2,101.9,112.9,100.8z M18.2,128.4c-5,0-9-4-9-9c0-5,4-9,9-9s9,4,9,9
			C27.2,124.3,23.1,128.4,18.2,128.4z M110.6,128.4c-5,0-9-4-9-9c0-5,4-9,9-9c5,0,9,4,9,9C119.7,124.3,115.6,128.4,110.6,128.4z"/>
	</g>
	<g>
		<g id="Layer_2_15_">
			<g>
				<path d="M141.7,33.9c-4.5-5.9-11.1-9.7-18.5-10.6c-7.3-1-14.5,1-20.4,5.4l-2.1-2.1c-0.6-0.6-1.2-0.4-1.2,0.4l-0.7,7.6
					c-0.1,0.9,0.6,1.5,1.4,1.4l7.6-0.7c0.9-0.1,1.1-0.6,0.5-1.2l-2.2-2.2c4.8-3.5,10.7-4.9,16.6-4.2c6.2,0.8,11.7,4,15.5,8.9
					c3.8,4.9,5.5,11.1,4.6,17.3c-0.6,4.4-2.3,8.4-5.1,11.8c-1.1,1.4-2.4,2.6-3.8,3.7c-4.9,3.8-11.1,5.5-17.3,4.6
					c-6.2-0.8-11.7-4-15.5-8.9c-3.7-4.8-5.4-10.8-4.7-16.8c0.1-1.2-0.7-2.3-2-2.5c-1.2-0.1-2.3,0.7-2.5,2
					c-0.8,7.2,1.2,14.3,5.6,20.1c4.5,5.9,11.1,9.7,18.5,10.6c7.4,1,14.7-1,20.6-5.5c1.7-1.3,3.2-2.8,4.6-4.4c3.3-4,5.4-8.8,6.1-14
					C148.2,47.1,146.3,39.8,141.7,33.9z"/>
				<path d="M118.6,32.8c-1,0-1.8,0.8-1.8,1.8v18.1l16.5,8.5c0.3,0.1,0.6,0.2,0.8,0.2c0.7,0,1.3-0.4,1.6-1c0.5-0.9,0.1-2-0.8-2.4
					l-14.6-7.5V34.6C120.4,33.6,119.6,32.8,118.6,32.8z"/>
			</g>
		</g>
	</g>
</g>
</svg>
