<?xml version="1.0" encoding="utf-8"?>
<!-- Generator: Adobe Illustrator 22.1.0, SVG Export Plug-In . SVG Version: 6.00 Build 0)  -->
<svg version="1.1" id="Capa_1" xmlns="http://www.w3.org/2000/svg" xmlns:xlink="http://www.w3.org/1999/xlink" x="0px" y="0px"
	 viewBox="0 0 150 150" style="enable-background:new 0 0 150 150;" xml:space="preserve">
<style type="text/css">
	.st0{fill:#FFFFFF;}
</style>
<g>
	<ellipse transform="matrix(0.7071 -0.7071 0.7071 0.7071 -31.066 75)" class="st0" cx="75" cy="75" rx="72.5" ry="72.5"/>
	<path d="M147.4,71.6c-1.7-37.2-31.8-67.3-69-69C35.7,0.6,0.6,35.7,2.6,78.4c1.7,37.2,31.8,67.3,69,69
		C114.3,149.4,149.4,114.3,147.4,71.6z M85,142c-7.9,1.2-16.1-0.5-22.6-5.2c-14.4-10.3-24.6-31.2-26-55.7c-1.4,0.7-3,1.1-4.7,1.1
		c-5.3,0-9-3.7-9-8.7c0-4.9,3.6-8.8,9-8.8c1.7,0,3.4,0.4,4.7,1.1v3.1c-1.2-0.9-3-1.5-4.7-1.5c-3.6,0-6.1,2.6-6.1,6s2.5,6,6.2,6
		c1.6,0,3.1-0.5,4.4-1.3c0-0.8,0-1.6,0-2.5c0-32.4,15.6-59.7,36.4-66.4c4.8-1.6,10-1.7,15-0.8c31.4,5.9,55.1,33.5,55.1,66.6
		C142.7,108.9,117.6,137.1,85,142z"/>
	<g>
		<path d="M119.6,64.7c1.7,0,3.4,0.4,4.7,1.1v3.1c-1.2-0.9-3-1.5-4.7-1.5c-3.6,0-6.1,2.6-6.1,6s2.5,6,6.2,6c1.8,0,3.5-0.6,4.8-1.6
			v3.1c-1.4,0.8-3.2,1.2-5,1.2c-5.3,0-9-3.7-9-8.7C110.6,68.6,114.2,64.7,119.6,64.7z"/>
		<path d="M102.4,65h3v16.9h-3V65z"/>
		<path d="M79.7,65h2.9l5.5,7.9l5.5-7.9h2.8v16.9h-3v-8.4c0-1.3,0-2.5,0-3.7l0,0c-0.7,1.1-1.4,2.1-2.2,3.3L88,77.6l-3.2-4.5
			c-0.8-1.1-1.5-2.2-2.2-3.3l0,0c0,1.2,0,2.4,0,3.7v8.4h-2.9C79.7,81.9,79.7,65,79.7,65z"/>
		<path d="M63.5,77.8c1.7,1.2,3.8,1.7,5.2,1.7c1.7,0,2.9-0.7,2.9-2.3c0-1.9-1.8-2.1-4-2.8c-2.4-0.7-4.6-1.8-4.6-4.8
			c0-3.1,2.3-4.9,5.7-4.9c1.6,0,3.6,0.4,5,1.3v3c-1.7-1.1-3.7-1.6-5.1-1.6c-1.6,0-2.7,0.6-2.7,2.1c0,1.8,1.8,2,3.8,2.6
			c2.5,0.8,4.7,1.9,4.7,5c0,3.2-2.4,5.1-5.9,5.1c-1.7,0-3.6-0.4-5.1-1.2L63.5,77.8L63.5,77.8z"/>
		<path d="M41.2,73.4c0-4.9,3.7-8.7,8.7-8.7s8.7,3.8,8.7,8.7c0,4.9-3.7,8.7-8.7,8.7S41.2,78.4,41.2,73.4z M55.7,73.4
			c0-3.4-2.5-6-5.8-6s-5.8,2.6-5.8,6s2.5,6,5.8,6S55.7,76.8,55.7,73.4z"/>
	</g>
</g>
</svg>
