<?xml version="1.0" encoding="utf-8"?>
<!-- Generator: Adobe Illustrator 22.1.0, SVG Export Plug-In . SVG Version: 6.00 Build 0)  -->
<svg version="1.1" id="Capa_1" xmlns="http://www.w3.org/2000/svg" xmlns:xlink="http://www.w3.org/1999/xlink" x="0px" y="0px"
	 viewBox="0 0 150 150" style="enable-background:new 0 0 150 150;" xml:space="preserve">
<style type="text/css">
	.st0{fill:#FFFFFF;}
</style>
<g>
	<ellipse class="st0" cx="75" cy="75" rx="72.5" ry="72.5"/>
	<path d="M146.4,71.6C144.7,35,115,5.3,78.4,3.6C36.2,1.6,1.6,36.2,3.6,78.4C5.3,115,35,144.7,71.6,146.4
		C113.8,148.4,148.4,113.8,146.4,71.6z M84.9,141.1c-7.8,1.2-15.9-0.5-22.3-5.1C48.4,125.8,38.3,105.2,36.9,81
		c-1.4,0.7-3,1.1-4.6,1.1c-5.2,0-8.9-3.6-8.9-8.6c0-4.8,3.6-8.7,8.9-8.7c1.7,0,3.4,0.4,4.6,1.1V69c-1.2-0.9-3-1.5-4.6-1.5
		c-3.6,0-6,2.6-6,5.9s2.5,5.9,6.1,5.9c1.6,0,3.1-0.5,4.3-1.3c0-0.8,0-1.6,0-2.5c0-32,15.4-58.9,35.9-65.5c4.7-1.6,9.9-1.7,14.8-0.8
		c31,5.8,54.3,33,54.3,65.7C141.8,108.4,117,136.3,84.9,141.1z"/>
	<g>
		<path d="M119,64.8c1.7,0,3.4,0.4,4.6,1.1V69c-1.2-0.9-3-1.5-4.6-1.5c-3.6,0-6,2.6-6,5.9s2.5,5.9,6.1,5.9c1.8,0,3.5-0.6,4.7-1.6
			v3.1c-1.4,0.8-3.2,1.2-4.9,1.2c-5.2,0-8.9-3.6-8.9-8.6C110.1,68.7,113.7,64.8,119,64.8z"/>
		<path d="M102,65.1h3v16.7h-3V65.1z"/>
		<path d="M79.6,65.1h2.9l5.4,7.8l5.4-7.8h2.8v16.7h-3v-8.3c0-1.3,0-2.5,0-3.6l0,0c-0.7,1.1-1.4,2.1-2.2,3.3l-3.2,4.4l-3.2-4.4
			c-0.8-1.1-1.5-2.2-2.2-3.3l0,0c0,1.2,0,2.4,0,3.6v8.3h-2.9C79.6,81.8,79.6,65.1,79.6,65.1z"/>
		<path d="M63.7,77.8c1.7,1.2,3.7,1.7,5.1,1.7c1.7,0,2.9-0.7,2.9-2.3c0-1.9-1.8-2.1-3.9-2.8c-2.4-0.7-4.5-1.8-4.5-4.7
			c0-3.1,2.3-4.8,5.6-4.8c1.6,0,3.6,0.4,4.9,1.3v3c-1.7-1.1-3.6-1.6-5-1.6c-1.6,0-2.7,0.6-2.7,2.1c0,1.8,1.8,2,3.7,2.6
			c2.5,0.8,4.6,1.9,4.6,4.9c0,3.2-2.4,5-5.8,5c-1.7,0-3.6-0.4-5-1.2L63.7,77.8L63.7,77.8z"/>
		<path d="M41.7,73.4c0-4.8,3.6-8.6,8.6-8.6s8.6,3.7,8.6,8.6c0,4.8-3.6,8.6-8.6,8.6S41.7,78.4,41.7,73.4z M56,73.4
			c0-3.4-2.5-5.9-5.7-5.9s-5.7,2.6-5.7,5.9s2.5,5.9,5.7,5.9S56,76.8,56,73.4z"/>
	</g>
</g>
</svg>
