<?xml version="1.0" encoding="utf-8"?>
<!-- Generator: Adobe Illustrator 22.1.0, SVG Export Plug-In . SVG Version: 6.00 Build 0)  -->
<svg version="1.1" id="Capa_1" xmlns="http://www.w3.org/2000/svg" xmlns:xlink="http://www.w3.org/1999/xlink" x="0px" y="0px"
	 viewBox="0 0 91 91" style="enable-background:new 0 0 91 91;" xml:space="preserve">
<g>
	<path d="M48.5,9.7l3.2,1.1c0.3,0.1,0.5,0.1,0.8,0.1c0.2,0,0.5,0,0.7-0.1l1.8,0.7l2,8.1l3.4-0.8L59,13.4l0.6,0.2
		c0.2,0.1,0.5,0.1,0.7,0.1c0.9,0,1.7-0.5,2-1.4c0.4-1.1-0.2-2.3-1.3-2.7l-1.4-0.5C59.2,9,58.8,9,58.4,9l-0.6-0.2
		c-0.4-0.6-1.1-1-1.9-0.8c-0.1,0-0.1,0-0.2,0.1l-1.4-0.5c-0.3-0.5-0.7-0.8-1.2-1L50,5.4c-1.2-0.4-2.5,0.2-2.9,1.4
		C46.7,8,47.3,9.3,48.5,9.7z"/>
	<path d="M72.5,65.4l-3.3-13.8l1.2-0.3l-1.2-5.1l-1.3,0.3l-6.2-26c-0.2-0.8-0.7-1.3-1.3-1.7L57,19.6c-0.4,0.6-0.6,1.3-0.4,2.1
		l6.2,25.9l-1.3,0.3l1.2,5.1l1.4-0.3l0.5,1.9l-15,19.1H34.8c-0.9-8-7.7-14.3-15.9-14.3c-2.2,0-4.4,0.4-6.4,1.3l1.4,3.2
		c1.6-0.7,3.3-1,5-1c6.3,0,11.6,4.7,12.4,10.8h-2.4c-0.8-4.8-5-8.4-10-8.4c-5.6,0-10.2,4.6-10.2,10.2c0,5.6,4.6,10.2,10.2,10.2
		c5,0,9.2-3.6,10-8.4h23.2h0.1c0.8,0,1.3-0.2,2.1-1.1l11.8-15l1.3,5.4c-3.2,1.7-5.4,5.1-5.4,9c0,5.6,4.6,10.2,10.2,10.2
		c5.6,0,10.2-4.6,10.2-10.2C82.3,70,77.9,65.6,72.5,65.4z M18.9,77.3h4.6c-0.7,1.9-2.5,3.2-4.6,3.2c-2.7,0-4.9-2.2-4.9-4.9
		c0-2.7,2.2-4.9,4.9-4.9c2.1,0,3.9,1.3,4.6,3.2h-4.6c-1,0-1.7,0.8-1.7,1.7C17.2,76.5,17.9,77.3,18.9,77.3z M72.1,80.4
		c-2.7,0-4.9-2.2-4.9-4.9c0-1.4,0.6-2.6,1.5-3.5l0.9,3.6c0.3,1.2,1.4,2,2.5,2c0.2,0,0.4,0,0.6-0.1c1.4-0.3,2.3-1.8,1.9-3.2l-0.8-3.5
		c1.9,0.7,3.2,2.5,3.2,4.6C77,78.2,74.8,80.4,72.1,80.4z"/>
</g>
</svg>
